<?xml version="1.0" encoding="UTF-8" standalone="no"?>
<!-- Created with Inkscape (http://www.inkscape.org/) -->

<svg
   version="1.1"
   id="svg2"
   width="358.12253"
   height="210.81441"
   viewBox="0 0 358.12253 210.81441"
   xmlns="http://www.w3.org/2000/svg"
   xmlns:svg="http://www.w3.org/2000/svg">
  <defs
     id="defs6" />
  <g
     id="g8"
     transform="matrix(1.3333333,0,0,-1.3333333,2.6663646e-5,210.81254)">
    <g
       id="g10"
       transform="translate(20.134,136.426)">
      <g
         id="g12">
        <g
           id="g14">
          <g
             id="g16">
            <path
               d="M 19.93477,0 C 19.93477,11.0098 11.0098,19.93477 0,19.93477 -11.0098,19.93477 -19.93477,11.0098 -19.93477,0 c 0,-11.0098 8.92497,-19.93477 19.93477,-19.93477 11.0098,0 19.93477,8.92497 19.93477,19.93477 z"
               style="fill:none;stroke:#000000;stroke-width:0.3985;stroke-linecap:butt;stroke-linejoin:miter;stroke-miterlimit:10;stroke-dasharray:none;stroke-opacity:1"
               id="path18" />
            <g
               id="g20"
               transform="matrix(2,0,0,2,-9.011,-2.795)">
              <g
                 id="g22">
                <g
                   id="g24"
                   transform="translate(-11.123,-133.631)">
                  <text
                     xml:space="preserve"
                     transform="matrix(1,0,0,-1,11.123,133.631)"
                     style="font-variant:normal;font-weight:normal;font-size:9.9626px;font-family:CMMI10;-inkscape-font-specification:CMMI10;writing-mode:lr-tb;fill:#000000;fill-opacity:1;fill-rule:nonzero;stroke:none"
                     id="text28"><tspan
                       x="0"
                       y="0"
                       id="tspan26">x</tspan></text>
                  <text
                     xml:space="preserve"
                     transform="matrix(1,0,0,-1,16.817,132.136)"
                     style="font-variant:normal;font-weight:normal;font-size:6.9738px;font-family:CMMI7;-inkscape-font-specification:CMMI7;writing-mode:lr-tb;fill:#000000;fill-opacity:1;fill-rule:nonzero;stroke:none"
                     id="text32"><tspan
                       x="0"
                       y="0"
                       id="tspan30">i</tspan></text>
                  <g
                     id="g34"
                     transform="translate(11.123,133.631)" />
                </g>
              </g>
              <g
                 id="g36"
                 transform="translate(9.011,2.795)" />
            </g>
          </g>
          <g
             id="g38">
            <path
               d="m 248.25864,0 c 0,11.86551 -9.61864,21.48416 -21.48416,21.48416 -11.86553,0 -21.48418,-9.61865 -21.48418,-21.48416 0,-11.86551 9.61865,-21.48416 21.48418,-21.48416 11.86552,0 21.48416,9.61865 21.48416,21.48416 z"
               style="fill:none;stroke:#000000;stroke-width:0.3985;stroke-linecap:butt;stroke-linejoin:miter;stroke-miterlimit:10;stroke-dasharray:none;stroke-opacity:1"
               id="path40" />
            <g
               id="g42"
               transform="matrix(2,0,0,2,216.88,-1.439)">
              <g
                 id="g44">
                <g
                   id="g46"
                   transform="translate(-237.014,-134.987)">
                  <text
                     xml:space="preserve"
                     transform="matrix(1,0,0,-1,237.014,134.987)"
                     style="font-variant:normal;font-weight:normal;font-size:9.9626px;font-family:CMMI10;-inkscape-font-specification:CMMI10;writing-mode:lr-tb;fill:#000000;fill-opacity:1;fill-rule:nonzero;stroke:none"
                     id="text50"><tspan
                       x="0"
                       y="0"
                       id="tspan48">x</tspan></text>
                  <text
                     xml:space="preserve"
                     transform="matrix(1,0,0,-1,242.708,133.492)"
                     style="font-variant:normal;font-weight:normal;font-size:6.9738px;font-family:CMMI7;-inkscape-font-specification:CMMI7;writing-mode:lr-tb;fill:#000000;fill-opacity:1;fill-rule:nonzero;stroke:none"
                     id="text54"><tspan
                       x="0"
                       y="0"
                       id="tspan52">j</tspan></text>
                  <g
                     id="g56"
                     transform="translate(237.014,134.987)" />
                </g>
              </g>
              <g
                 id="g58"
                 transform="translate(-216.88,1.439)" />
            </g>
          </g>
          <g
             id="g60">
            <path
               d="m 136.22815,-113.38724 c 0,12.61486 -10.22607,22.84091 -22.84091,22.84091 -12.61486,0 -22.84091,-10.22605 -22.84091,-22.84091 0,-12.61484 10.22605,-22.84091 22.84091,-22.84091 12.61484,0 22.84091,10.22607 22.84091,22.84091 z"
               style="fill:none;stroke:#000000;stroke-width:0.3985;stroke-linecap:butt;stroke-linejoin:miter;stroke-miterlimit:10;stroke-dasharray:none;stroke-opacity:1"
               id="path62" />
            <g
               id="g64"
               transform="matrix(2,0,0,2,101.736,-114.825)">
              <g
                 id="g66">
                <g
                   id="g68"
                   transform="translate(-121.87,-21.601)">
                  <text
                     xml:space="preserve"
                     transform="matrix(1,0,0,-1,121.87,21.601)"
                     style="font-variant:normal;font-weight:normal;font-size:9.9626px;font-family:CMMI10;-inkscape-font-specification:CMMI10;writing-mode:lr-tb;fill:#000000;fill-opacity:1;fill-rule:nonzero;stroke:none"
                     id="text72"><tspan
                       x="0"
                       y="0"
                       id="tspan70">z</tspan></text>
                  <text
                     xml:space="preserve"
                     transform="matrix(1,0,0,-1,126.503,20.106)"
                     style="font-variant:normal;font-weight:normal;font-size:6.9738px;font-family:CMMI7;-inkscape-font-specification:CMMI7;writing-mode:lr-tb;fill:#000000;fill-opacity:1;fill-rule:nonzero;stroke:none"
                     id="text76"><tspan
                       x="0 2.81881"
                       y="0"
                       id="tspan74">ij</tspan></text>
                  <g
                     id="g78"
                     transform="translate(121.87,21.601)" />
                </g>
              </g>
              <g
                 id="g80"
                 transform="translate(-101.736,114.825)" />
            </g>
          </g>
          <path
             d="M 14.3778,-14.3778 96.63043,-96.63043"
             style="fill:none;stroke:#000000;stroke-width:0.3985;stroke-linecap:butt;stroke-linejoin:miter;stroke-miterlimit:10;stroke-dasharray:none;stroke-opacity:1"
             id="path82" />
          <g
             id="g84"
             transform="matrix(0.7071,-0.7071,0.7071,0.7071,96.63043,-96.63043)">
            <g
               id="g86">
              <path
                 d="M -1.19551,1.59401 C -1.09587,0.99626 0,0.09961 0.29886,0 0,-0.09961 -1.09587,-0.99626 -1.19551,-1.59401"
                 style="fill:none;stroke:#000000;stroke-width:0.31879;stroke-linecap:round;stroke-linejoin:round;stroke-miterlimit:10;stroke-dasharray:none;stroke-opacity:1"
                 id="path88" />
            </g>
          </g>
          <g
             id="g90">
            <g
               id="g92"
               transform="matrix(2,0,0,2,22.97,-76.542)">
              <g
                 id="g94">
                <g
                   id="g96"
                   transform="translate(-43.104,-59.884)">
                  <text
                     xml:space="preserve"
                     transform="matrix(1,0,0,-1,43.103,59.884)"
                     style="font-variant:normal;font-weight:normal;font-size:9.9626px;font-family:CMMI10;-inkscape-font-specification:CMMI10;writing-mode:lr-tb;fill:#000000;fill-opacity:1;fill-rule:nonzero;stroke:none"
                     id="text100"><tspan
                       x="0"
                       y="0"
                       id="tspan98">λ</tspan></text>
                  <text
                     xml:space="preserve"
                     transform="matrix(1,0,0,-1,48.915,58.389)"
                     style="font-variant:normal;font-weight:normal;font-size:6.9738px;font-family:CMMI7;-inkscape-font-specification:CMMI7;writing-mode:lr-tb;fill:#000000;fill-opacity:1;fill-rule:nonzero;stroke:none"
                     id="text104"><tspan
                       x="0 2.81881"
                       y="0"
                       id="tspan102">ij</tspan></text>
                  <g
                     id="g106"
                     transform="translate(43.103,59.884)" />
                </g>
              </g>
              <g
                 id="g108"
                 transform="translate(-22.969,76.542)" />
            </g>
          </g>
          <path
             d="m 129.81999,-96.95447 81.15705,81.15703"
             style="fill:none;stroke:#000000;stroke-width:0.3985;stroke-linecap:butt;stroke-linejoin:miter;stroke-miterlimit:10;stroke-dasharray:none;stroke-opacity:1"
             id="path110" />
          <g
             id="g112"
             transform="matrix(0.7071,0.7071,-0.7071,0.7071,210.97704,-15.79744)">
            <g
               id="g114">
              <path
                 d="M -1.19551,1.59401 C -1.09587,0.99626 0,0.09961 0.29886,0 0,-0.09961 -1.09587,-0.99626 -1.19551,-1.59401"
                 style="fill:none;stroke:#000000;stroke-width:0.31879;stroke-linecap:round;stroke-linejoin:round;stroke-miterlimit:10;stroke-dasharray:none;stroke-opacity:1"
                 id="path116" />
            </g>
          </g>
        </g>
      </g>
    </g>
  </g>
</svg>
