<?xml version="1.0" encoding="UTF-8" standalone="no"?>
<!-- Created with Inkscape (http://www.inkscape.org/) -->

<svg
   version="1.1"
   id="svg2"
   width="285.2182"
   height="73.875526"
   viewBox="0 0 285.2182 73.875527"
   xmlns="http://www.w3.org/2000/svg"
   xmlns:svg="http://www.w3.org/2000/svg">
  <defs
     id="defs6" />
  <g
     id="g8"
     transform="matrix(1.3333333,0,0,-1.3333333,0.00113333,75.559798)">
    <g
       id="g10"
       transform="translate(27.626,29.043)">
      <g
         id="g12">
        <g
           id="g14">
          <g
             id="g16">
            <path
               d="m 7.58493,19.84267 c 0,4.18908 -3.39584,7.58493 -7.58493,7.58493 -4.18909,0 -7.58493,-3.39585 -7.58493,-7.58493 0,-4.18909 3.39584,-7.58495 7.58493,-7.58495 4.18909,0 7.58493,3.39586 7.58493,7.58495 z"
               style="fill:none;stroke:#000000;stroke-width:0.3985;stroke-linecap:butt;stroke-linejoin:miter;stroke-miterlimit:10;stroke-dasharray:none;stroke-opacity:1"
               id="path18" />
            <g
               id="g20"
               transform="translate(-3.32,16.383)">
              <g
                 id="g22">
                <g
                   id="g24"
                   transform="translate(-24.306,-45.426)">
                  <text
                     xml:space="preserve"
                     transform="matrix(1,0,0,-1,24.306,45.426)"
                     style="font-variant:normal;font-weight:normal;font-size:9.9626px;font-family:CMSS10;-inkscape-font-specification:CMSS10;writing-mode:lr-tb;fill:#000000;fill-opacity:1;fill-rule:nonzero;stroke:none"
                     id="text28"><tspan
                       x="0"
                       y="0"
                       id="tspan26">A</tspan></text>
                  <g
                     id="g30"
                     transform="translate(24.306,45.426)" />
                </g>
              </g>
              <g
                 id="g32"
                 transform="translate(3.32,-16.383)" />
            </g>
          </g>
          <g
             id="g34">
            <path
               d="m -12.25772,-19.84267 c 0,4.18909 -3.39586,7.58495 -7.58495,7.58495 -4.18908,0 -7.58493,-3.39586 -7.58493,-7.58495 0,-4.18908 3.39585,-7.58493 7.58493,-7.58493 4.18909,0 7.58495,3.39585 7.58495,7.58493 z"
               style="fill:none;stroke:#000000;stroke-width:0.3985;stroke-linecap:butt;stroke-linejoin:miter;stroke-miterlimit:10;stroke-dasharray:none;stroke-opacity:1"
               id="path36" />
            <g
               id="g38"
               transform="translate(-23.163,-23.301)">
              <g
                 id="g40">
                <g
                   id="g42"
                   transform="translate(-4.463,-5.742)">
                  <text
                     xml:space="preserve"
                     transform="matrix(1,0,0,-1,4.463,5.742)"
                     style="font-variant:normal;font-weight:normal;font-size:9.9626px;font-family:CMSS10;-inkscape-font-specification:CMSS10;writing-mode:lr-tb;fill:#000000;fill-opacity:1;fill-rule:nonzero;stroke:none"
                     id="text46"><tspan
                       x="0"
                       y="0"
                       id="tspan44">B</tspan></text>
                  <g
                     id="g48"
                     transform="translate(4.463,5.742)" />
                </g>
              </g>
              <g
                 id="g50"
                 transform="translate(23.163,23.301)" />
            </g>
          </g>
          <g
             id="g52">
            <path
               d="m 27.34612,-19.84267 c 0,4.14409 -3.35936,7.50347 -7.50345,7.50347 -4.14409,0 -7.50347,-3.35938 -7.50347,-7.50347 0,-4.14409 3.35938,-7.50345 7.50347,-7.50345 4.14409,0 7.50345,3.35936 7.50345,7.50345 z"
               style="fill:none;stroke:#000000;stroke-width:0.3985;stroke-linecap:butt;stroke-linejoin:miter;stroke-miterlimit:10;stroke-dasharray:none;stroke-opacity:1"
               id="path54" />
            <g
               id="g56"
               transform="translate(16.66,-23.301)">
              <g
                 id="g58">
                <g
                   id="g60"
                   transform="translate(-44.286,-5.742)">
                  <text
                     xml:space="preserve"
                     transform="matrix(1,0,0,-1,44.286,5.742)"
                     style="font-variant:normal;font-weight:normal;font-size:9.9626px;font-family:CMSS10;-inkscape-font-specification:CMSS10;writing-mode:lr-tb;fill:#000000;fill-opacity:1;fill-rule:nonzero;stroke:none"
                     id="text64"><tspan
                       x="0"
                       y="0"
                       id="tspan62">C</tspan></text>
                  <g
                     id="g66"
                     transform="translate(44.286,5.742)" />
                </g>
              </g>
              <g
                 id="g68"
                 transform="translate(-16.66,23.301)" />
            </g>
          </g>
          <path
             d="M -6.49567,15.55424 C -16.58507,8.89255 -21.03378,-0.00453 -20.33678,-11.61565"
             style="fill:none;stroke:#000000;stroke-width:0.3985;stroke-linecap:butt;stroke-linejoin:miter;stroke-miterlimit:10;stroke-dasharray:none;stroke-opacity:1"
             id="path70" />
          <g
             id="g72"
             transform="matrix(0.05989,-0.99815,0.99815,0.05989,-20.33679,-11.61565)">
            <g
               id="g74">
              <path
                 d="M -1.19551,1.59401 C -1.09587,0.99626 0,0.09961 0.29886,0 0,-0.09961 -1.09587,-0.99626 -1.19551,-1.59401"
                 style="fill:none;stroke:#000000;stroke-width:0.31879;stroke-linecap:round;stroke-linejoin:round;stroke-miterlimit:10;stroke-dasharray:none;stroke-opacity:1"
                 id="path76" />
            </g>
          </g>
          <path
             d="m -13.1017,-23.73517 c 8.88123,-5.10916 17.40869,-5.09602 25.87746,-0.18901"
             style="fill:none;stroke:#000000;stroke-width:0.3985;stroke-linecap:butt;stroke-linejoin:miter;stroke-miterlimit:10;stroke-dasharray:none;stroke-opacity:1"
             id="path78" />
          <g
             id="g80"
             transform="matrix(0.86523,0.50133,-0.50133,0.86523,12.77576,-23.92418)">
            <g
               id="g82">
              <path
                 d="M -1.19551,1.59401 C -1.09587,0.99626 0,0.09961 0.29886,0 0,-0.09961 -1.09587,-0.99626 -1.19551,-1.59401"
                 style="fill:none;stroke:#000000;stroke-width:0.31879;stroke-linecap:round;stroke-linejoin:round;stroke-miterlimit:10;stroke-dasharray:none;stroke-opacity:1"
                 id="path84" />
            </g>
          </g>
          <path
             d="M 20.30446,-12.1544 C 21.04376,-0.10384 16.56207,8.88869 6.87773,15.30125"
             style="fill:none;stroke:#000000;stroke-width:0.3985;stroke-linecap:butt;stroke-linejoin:miter;stroke-miterlimit:10;stroke-dasharray:none;stroke-opacity:1"
             id="path86" />
          <g
             id="g88"
             transform="matrix(-0.83372,0.55206,-0.55206,-0.83372,6.87773,15.30125)">
            <g
               id="g90">
              <path
                 d="M -1.19551,1.59401 C -1.09587,0.99626 0,0.09961 0.29886,0 0,-0.09961 -1.09587,-0.99626 -1.19551,-1.59401"
                 style="fill:none;stroke:#000000;stroke-width:0.31879;stroke-linecap:round;stroke-linejoin:round;stroke-miterlimit:10;stroke-dasharray:none;stroke-opacity:1"
                 id="path92" />
            </g>
          </g>
          <g
             id="g94">
            <path
               d="M 29.764,0 H 48.8993"
               style="fill:none;stroke:#000000;stroke-width:0.79701;stroke-linecap:butt;stroke-linejoin:miter;stroke-miterlimit:10;stroke-dasharray:none;stroke-opacity:1"
               id="path96" />
            <g
               id="g98"
               transform="translate(48.8993)">
              <g
                 id="g100">
                <path
                   d="M -1.55415,2.0722 C -1.42464,1.29512 0,0.1295 0.38852,0 0,-0.1295 -1.42464,-1.29512 -1.55415,-2.0722"
                   style="fill:none;stroke:#000000;stroke-width:0.6376;stroke-linecap:round;stroke-linejoin:round;stroke-miterlimit:10;stroke-dasharray:none;stroke-opacity:1"
                   id="path102" />
              </g>
            </g>
          </g>
          <g
             id="g104">
            <path
               d="m 86.95564,19.84267 c 0,4.18908 -3.39584,7.58493 -7.58493,7.58493 -4.18908,0 -7.58494,-3.39585 -7.58494,-7.58493 0,-4.18909 3.39586,-7.58495 7.58494,-7.58495 4.18909,0 7.58493,3.39586 7.58493,7.58495 z"
               style="fill:none;stroke:#000000;stroke-width:0.3985;stroke-linecap:butt;stroke-linejoin:miter;stroke-miterlimit:10;stroke-dasharray:none;stroke-opacity:1"
               id="path106" />
            <g
               id="g108"
               transform="translate(76.049,16.383)">
              <g
                 id="g110">
                <g
                   id="g112"
                   transform="translate(-103.675,-45.426)">
                  <text
                     xml:space="preserve"
                     transform="matrix(1,0,0,-1,103.675,45.426)"
                     style="font-variant:normal;font-weight:normal;font-size:9.9626px;font-family:CMSS10;-inkscape-font-specification:CMSS10;writing-mode:lr-tb;fill:#000000;fill-opacity:1;fill-rule:nonzero;stroke:none"
                     id="text116"><tspan
                       x="0"
                       y="0"
                       id="tspan114">A</tspan></text>
                  <g
                     id="g118"
                     transform="translate(103.675,45.426)" />
                </g>
              </g>
              <g
                 id="g120"
                 transform="translate(-76.049,-16.383)" />
            </g>
          </g>
          <g
             id="g122">
            <path
               d="m 67.11296,-19.84267 c 0,4.18909 -3.39586,7.58495 -7.58494,7.58495 -4.18909,0 -7.58494,-3.39586 -7.58494,-7.58495 0,-4.18908 3.39585,-7.58493 7.58494,-7.58493 4.18908,0 7.58494,3.39585 7.58494,7.58493 z"
               style="fill:none;stroke:#000000;stroke-width:0.3985;stroke-linecap:butt;stroke-linejoin:miter;stroke-miterlimit:10;stroke-dasharray:none;stroke-opacity:1"
               id="path124" />
            <g
               id="g126"
               transform="translate(56.207,-23.301)">
              <g
                 id="g128">
                <g
                   id="g130"
                   transform="translate(-83.833,-5.742)">
                  <text
                     xml:space="preserve"
                     transform="matrix(1,0,0,-1,83.833,5.742)"
                     style="font-variant:normal;font-weight:normal;font-size:9.9626px;font-family:CMSS10;-inkscape-font-specification:CMSS10;writing-mode:lr-tb;fill:#000000;fill-opacity:1;fill-rule:nonzero;stroke:none"
                     id="text134"><tspan
                       x="0"
                       y="0"
                       id="tspan132">B</tspan></text>
                  <g
                     id="g136"
                     transform="translate(83.833,5.742)" />
                </g>
              </g>
              <g
                 id="g138"
                 transform="translate(-56.207,23.301)" />
            </g>
          </g>
          <g
             id="g140">
            <path
               d="m 106.71684,-19.84267 c 0,4.14409 -3.35936,7.50347 -7.50344,7.50347 -4.1441,0 -7.50345,-3.35938 -7.50345,-7.50347 0,-4.14409 3.35935,-7.50345 7.50345,-7.50345 4.14408,0 7.50344,3.35936 7.50344,7.50345 z"
               style="fill:none;stroke:#000000;stroke-width:0.3985;stroke-linecap:butt;stroke-linejoin:miter;stroke-miterlimit:10;stroke-dasharray:none;stroke-opacity:1"
               id="path142" />
            <g
               id="g144"
               transform="translate(96.03,-23.301)">
              <g
                 id="g146">
                <g
                   id="g148"
                   transform="translate(-123.656,-5.742)">
                  <text
                     xml:space="preserve"
                     transform="matrix(1,0,0,-1,123.656,5.742)"
                     style="font-variant:normal;font-weight:normal;font-size:9.9626px;font-family:CMSS10;-inkscape-font-specification:CMSS10;writing-mode:lr-tb;fill:#000000;fill-opacity:1;fill-rule:nonzero;stroke:none"
                     id="text152"><tspan
                       x="0"
                       y="0"
                       id="tspan150">C</tspan></text>
                  <g
                     id="g154"
                     transform="translate(123.656,5.742)" />
                </g>
              </g>
              <g
                 id="g156"
                 transform="translate(-96.03,23.301)" />
            </g>
          </g>
          <path
             d="M 72.87648,15.55402 C 62.78714,8.89238 58.33858,-0.00461 59.03558,-11.61565"
             style="fill:none;stroke:#000000;stroke-width:0.3985;stroke-linecap:butt;stroke-linejoin:miter;stroke-miterlimit:10;stroke-dasharray:none;stroke-opacity:1"
             id="path158" />
          <g
             id="g160"
             transform="matrix(0.05989,-0.99815,0.99815,0.05989,59.03557,-11.61565)">
            <g
               id="g162">
              <path
                 d="M -1.19551,1.59401 C -1.09587,0.99626 0,0.09961 0.29886,0 0,-0.09961 -1.09587,-0.99626 -1.19551,-1.59401"
                 style="fill:none;stroke:#000000;stroke-width:0.31879;stroke-linecap:round;stroke-linejoin:round;stroke-miterlimit:10;stroke-dasharray:none;stroke-opacity:1"
                 id="path164" />
            </g>
          </g>
          <path
             d="M 85.86797,15.55437 C 95.93443,8.88876 100.4162,-0.10378 99.70494,-11.697"
             style="fill:none;stroke:#000000;stroke-width:0.3985;stroke-linecap:butt;stroke-linejoin:miter;stroke-miterlimit:10;stroke-dasharray:none;stroke-opacity:1"
             id="path166" />
          <g
             id="g168"
             transform="matrix(-0.06123,-0.99808,0.99808,-0.06123,99.70496,-11.697)">
            <g
               id="g170">
              <path
                 d="M -1.19551,1.59401 C -1.09587,0.99626 0,0.09961 0.29886,0 0,-0.09961 -1.09587,-0.99626 -1.19551,-1.59401"
                 style="fill:none;stroke:#000000;stroke-width:0.31879;stroke-linecap:round;stroke-linejoin:round;stroke-miterlimit:10;stroke-dasharray:none;stroke-opacity:1"
                 id="path172" />
            </g>
          </g>
          <g
             id="g174">
            <path
               d="m 109.13472,0 h 19.13533"
               style="fill:none;stroke:#000000;stroke-width:0.79701;stroke-linecap:butt;stroke-linejoin:miter;stroke-miterlimit:10;stroke-dasharray:none;stroke-opacity:1"
               id="path176" />
            <g
               id="g178"
               transform="translate(128.27005)">
              <g
                 id="g180">
                <path
                   d="M -1.55415,2.0722 C -1.42464,1.29512 0,0.1295 0.38852,0 0,-0.1295 -1.42464,-1.29512 -1.55415,-2.0722"
                   style="fill:none;stroke:#000000;stroke-width:0.6376;stroke-linecap:round;stroke-linejoin:round;stroke-miterlimit:10;stroke-dasharray:none;stroke-opacity:1"
                   id="path182" />
              </g>
            </g>
          </g>
          <g
             id="g184">
            <path
               d="m 166.32635,19.84267 c 0,4.18908 -3.39584,7.58493 -7.58493,7.58493 -4.18908,0 -7.58494,-3.39585 -7.58494,-7.58493 0,-4.18909 3.39586,-7.58495 7.58494,-7.58495 4.18909,0 7.58493,3.39586 7.58493,7.58495 z"
               style="fill:none;stroke:#000000;stroke-width:0.3985;stroke-linecap:butt;stroke-linejoin:miter;stroke-miterlimit:10;stroke-dasharray:none;stroke-opacity:1"
               id="path186" />
            <g
               id="g188"
               transform="translate(155.419,16.383)">
              <g
                 id="g190">
                <g
                   id="g192"
                   transform="translate(-183.045,-45.426)">
                  <text
                     xml:space="preserve"
                     transform="matrix(1,0,0,-1,183.045,45.426)"
                     style="font-variant:normal;font-weight:normal;font-size:9.9626px;font-family:CMSS10;-inkscape-font-specification:CMSS10;writing-mode:lr-tb;fill:#000000;fill-opacity:1;fill-rule:nonzero;stroke:none"
                     id="text196"><tspan
                       x="0"
                       y="0"
                       id="tspan194">A</tspan></text>
                  <g
                     id="g198"
                     transform="translate(183.045,45.426)" />
                </g>
              </g>
              <g
                 id="g200"
                 transform="translate(-155.419,-16.383)" />
            </g>
          </g>
          <g
             id="g202">
            <path
               d="m 146.48369,-19.84267 c 0,4.18909 -3.39585,7.58495 -7.58493,7.58495 -4.18909,0 -7.58495,-3.39586 -7.58495,-7.58495 0,-4.18908 3.39586,-7.58493 7.58495,-7.58493 4.18908,0 7.58493,3.39585 7.58493,7.58493 z"
               style="fill:none;stroke:#000000;stroke-width:0.3985;stroke-linecap:butt;stroke-linejoin:miter;stroke-miterlimit:10;stroke-dasharray:none;stroke-opacity:1"
               id="path204" />
            <g
               id="g206"
               transform="translate(135.577,-23.301)">
              <g
                 id="g208">
                <g
                   id="g210"
                   transform="translate(-163.203,-5.742)">
                  <text
                     xml:space="preserve"
                     transform="matrix(1,0,0,-1,163.203,5.742)"
                     style="font-variant:normal;font-weight:normal;font-size:9.9626px;font-family:CMSS10;-inkscape-font-specification:CMSS10;writing-mode:lr-tb;fill:#000000;fill-opacity:1;fill-rule:nonzero;stroke:none"
                     id="text214"><tspan
                       x="0"
                       y="0"
                       id="tspan212">B</tspan></text>
                  <g
                     id="g216"
                     transform="translate(163.203,5.742)" />
                </g>
              </g>
              <g
                 id="g218"
                 transform="translate(-135.577,23.301)" />
            </g>
          </g>
          <g
             id="g220">
            <path
               d="m 186.08755,-19.84267 c 0,4.14409 -3.35935,7.50347 -7.50345,7.50347 -4.14408,0 -7.50344,-3.35938 -7.50344,-7.50347 0,-4.14409 3.35936,-7.50345 7.50344,-7.50345 4.1441,0 7.50345,3.35936 7.50345,7.50345 z"
               style="fill:none;stroke:#000000;stroke-width:0.3985;stroke-linecap:butt;stroke-linejoin:miter;stroke-miterlimit:10;stroke-dasharray:none;stroke-opacity:1"
               id="path222" />
            <g
               id="g224"
               transform="translate(175.4,-23.301)">
              <g
                 id="g226">
                <g
                   id="g228"
                   transform="translate(-203.026,-5.742)">
                  <text
                     xml:space="preserve"
                     transform="matrix(1,0,0,-1,203.026,5.742)"
                     style="font-variant:normal;font-weight:normal;font-size:9.9626px;font-family:CMSS10;-inkscape-font-specification:CMSS10;writing-mode:lr-tb;fill:#000000;fill-opacity:1;fill-rule:nonzero;stroke:none"
                     id="text232"><tspan
                       x="0"
                       y="0"
                       id="tspan230">C</tspan></text>
                  <g
                     id="g234"
                     transform="translate(203.026,5.742)" />
                </g>
              </g>
              <g
                 id="g236"
                 transform="translate(-175.4,23.301)" />
            </g>
          </g>
          <path
             d="m 145.64275,-23.73494 c 8.88105,-5.10941 17.40857,-5.09621 25.87748,-0.18946"
             style="fill:none;stroke:#000000;stroke-width:0.3985;stroke-linecap:butt;stroke-linejoin:miter;stroke-miterlimit:10;stroke-dasharray:none;stroke-opacity:1"
             id="path238" />
          <g
             id="g240"
             transform="matrix(0.86523,0.5013,-0.5013,0.86523,171.52023,-23.9244)">
            <g
               id="g242">
              <path
                 d="M -1.19551,1.59401 C -1.09587,0.99626 0,0.09961 0.29886,0 0,-0.09961 -1.09587,-0.99626 -1.19551,-1.59401"
                 style="fill:none;stroke:#000000;stroke-width:0.31879;stroke-linecap:round;stroke-linejoin:round;stroke-miterlimit:10;stroke-dasharray:none;stroke-opacity:1"
                 id="path244" />
            </g>
          </g>
          <path
             d="m 165.24026,15.55449 c 10.06661,-6.66568 14.54838,-15.65825 13.83709,-27.25162"
             style="fill:none;stroke:#000000;stroke-width:0.3985;stroke-linecap:butt;stroke-linejoin:miter;stroke-miterlimit:10;stroke-dasharray:none;stroke-opacity:1"
             id="path246" />
          <g
             id="g248"
             transform="matrix(-0.06123,-0.99808,0.99808,-0.06123,179.07736,-11.69713)">
            <g
               id="g250">
              <path
                 d="M -1.19551,1.59401 C -1.09587,0.99626 0,0.09961 0.29886,0 0,-0.09961 -1.09587,-0.99626 -1.19551,-1.59401"
                 style="fill:none;stroke:#000000;stroke-width:0.31879;stroke-linecap:round;stroke-linejoin:round;stroke-miterlimit:10;stroke-dasharray:none;stroke-opacity:1"
                 id="path252" />
            </g>
          </g>
        </g>
      </g>
    </g>
  </g>
</svg>
