<?xml version="1.0" encoding="UTF-8" standalone="no"?>
<!-- Created with Inkscape (http://www.inkscape.org/) -->

<svg
   version="1.1"
   id="svg2"
   width="199.85883"
   height="101.3268"
   viewBox="0 0 199.85882 101.32679"
   xmlns="http://www.w3.org/2000/svg"
   xmlns:svg="http://www.w3.org/2000/svg">
  <defs
     id="defs6" />
  <g
     id="g8"
     transform="matrix(1.3333333,0,0,-1.3333333,-3.0283493,101.32692)">
    <g
       id="g10"
       transform="translate(14.892,-18.758)">
      <g
         id="g12">
        <g
           id="g14">
          <g
             id="g16">
            <path
               d="m 9.51352,85.04042 c 0,5.25423 -4.25929,9.51352 -9.51352,9.51352 -5.25423,0 -9.51352,-4.25929 -9.51352,-9.51352 0,-5.25422 4.25929,-9.51352 9.51352,-9.51352 5.25423,0 9.51352,4.2593 9.51352,9.51352 z"
               style="fill:none;stroke:#000000;stroke-width:0.3985;stroke-linecap:butt;stroke-linejoin:miter;stroke-miterlimit:10;stroke-dasharray:none;stroke-opacity:1"
               id="path18" />
            <g
               id="g20"
               transform="translate(-5.812,81.58)">
              <g
                 id="g22">
                <g
                   id="g24"
                   transform="translate(-9.08,-62.822)">
                  <text
                     xml:space="preserve"
                     transform="matrix(1,0,0,-1,9.08,62.822)"
                     style="font-variant:normal;font-weight:normal;font-size:9.9626px;font-family:CMSS10;-inkscape-font-specification:CMSS10;writing-mode:lr-tb;fill:#000000;fill-opacity:1;fill-rule:nonzero;stroke:none"
                     id="text28"><tspan
                       x="0 6.6420655"
                       y="0"
                       id="tspan26">A1</tspan></text>
                  <g
                     id="g30"
                     transform="translate(9.08,62.822)" />
                </g>
              </g>
              <g
                 id="g32"
                 transform="translate(5.812,-81.58)" />
            </g>
          </g>
          <g
             id="g34">
            <path
               d="m 9.51352,56.69362 c 0,5.25423 -4.25929,9.51352 -9.51352,9.51352 -5.25423,0 -9.51352,-4.25929 -9.51352,-9.51352 0,-5.25424 4.25929,-9.51352 9.51352,-9.51352 5.25423,0 9.51352,4.25928 9.51352,9.51352 z"
               style="fill:none;stroke:#000000;stroke-width:0.3985;stroke-linecap:butt;stroke-linejoin:miter;stroke-miterlimit:10;stroke-dasharray:none;stroke-opacity:1"
               id="path36" />
            <g
               id="g38"
               transform="translate(-5.812,53.234)">
              <g
                 id="g40">
                <g
                   id="g42"
                   transform="translate(-9.08,-34.476)">
                  <text
                     xml:space="preserve"
                     transform="matrix(1,0,0,-1,9.08,34.476)"
                     style="font-variant:normal;font-weight:normal;font-size:9.9626px;font-family:CMSS10;-inkscape-font-specification:CMSS10;writing-mode:lr-tb;fill:#000000;fill-opacity:1;fill-rule:nonzero;stroke:none"
                     id="text46"><tspan
                       x="0 6.6420655"
                       y="0"
                       id="tspan44">B1</tspan></text>
                  <g
                     id="g48"
                     transform="translate(9.08,34.476)" />
                </g>
              </g>
              <g
                 id="g50"
                 transform="translate(5.812,-53.234)" />
            </g>
          </g>
          <g
             id="g52">
            <path
               d="m 9.38947,28.3468 c 0,5.18572 -4.20377,9.38947 -9.38947,9.38947 -5.1857,0 -9.38947,-4.20375 -9.38947,-9.38947 0,-5.18571 4.20377,-9.38946 9.38947,-9.38946 5.1857,0 9.38947,4.20375 9.38947,9.38946 z"
               style="fill:none;stroke:#000000;stroke-width:0.3985;stroke-linecap:butt;stroke-linejoin:miter;stroke-miterlimit:10;stroke-dasharray:none;stroke-opacity:1"
               id="path54" />
            <g
               id="g56"
               transform="translate(-5.674,24.887)">
              <g
                 id="g58">
                <g
                   id="g60"
                   transform="translate(-9.218,-6.129)">
                  <text
                     xml:space="preserve"
                     transform="matrix(1,0,0,-1,9.218,6.129)"
                     style="font-variant:normal;font-weight:normal;font-size:9.9626px;font-family:CMSS10;-inkscape-font-specification:CMSS10;writing-mode:lr-tb;fill:#000000;fill-opacity:1;fill-rule:nonzero;stroke:none"
                     id="text64"><tspan
                       x="0 6.3651052"
                       y="0"
                       id="tspan62">C1</tspan></text>
                  <g
                     id="g66"
                     transform="translate(9.218,6.129)" />
                </g>
              </g>
              <g
                 id="g68"
                 transform="translate(5.674,-24.887)" />
            </g>
          </g>
          <path
             d="M 3.322,75.91365 C 4.66823,72.21495 4.66823,69.51907 3.47876,66.251"
             style="fill:none;stroke:#000000;stroke-width:0.3985;stroke-linecap:butt;stroke-linejoin:miter;stroke-miterlimit:10;stroke-dasharray:none;stroke-opacity:1"
             id="path70" />
          <g
             id="g72"
             transform="matrix(-0.34204,-0.93967,0.93967,-0.34204,3.47876,66.251)">
            <g
               id="g74">
              <path
                 d="M -1.19551,1.59401 C -1.09587,0.99626 0,0.09961 0.29886,0 0,-0.09961 -1.09587,-0.99626 -1.19551,-1.59401"
                 style="fill:none;stroke:#000000;stroke-width:0.31879;stroke-linecap:round;stroke-linejoin:round;stroke-miterlimit:10;stroke-dasharray:none;stroke-opacity:1"
                 id="path76" />
            </g>
          </g>
          <path
             d="M -5.57086,77.08434 C -14.69263,64.00879 -14.6669,49.24503 -5.76321,36.57622"
             style="fill:none;stroke:#000000;stroke-width:0.3985;stroke-linecap:butt;stroke-linejoin:miter;stroke-miterlimit:10;stroke-dasharray:none;stroke-opacity:1"
             id="path78" />
          <g
             id="g80"
             transform="matrix(0.57498,-0.81813,0.81813,0.57498,-5.76323,36.57622)">
            <g
               id="g82">
              <path
                 d="M -1.19551,1.59401 C -1.09587,0.99626 0,0.09961 0.29886,0 0,-0.09961 -1.09587,-0.99626 -1.19551,-1.59401"
                 style="fill:none;stroke:#000000;stroke-width:0.31879;stroke-linecap:round;stroke-linejoin:round;stroke-miterlimit:10;stroke-dasharray:none;stroke-opacity:1"
                 id="path84" />
            </g>
          </g>
          <g
             id="g86">
            <path
               d="m 52.03372,85.04042 c 0,5.25423 -4.25929,9.51352 -9.51352,9.51352 -5.25422,0 -9.51352,-4.25929 -9.51352,-9.51352 0,-5.25422 4.2593,-9.51352 9.51352,-9.51352 5.25423,0 9.51352,4.2593 9.51352,9.51352 z"
               style="fill:none;stroke:#000000;stroke-width:0.3985;stroke-linecap:butt;stroke-linejoin:miter;stroke-miterlimit:10;stroke-dasharray:none;stroke-opacity:1"
               id="path88" />
            <g
               id="g90"
               transform="translate(36.708,81.58)">
              <g
                 id="g92">
                <g
                   id="g94"
                   transform="translate(-51.6,-62.822)">
                  <text
                     xml:space="preserve"
                     transform="matrix(1,0,0,-1,51.6,62.822)"
                     style="font-variant:normal;font-weight:normal;font-size:9.9626px;font-family:CMSS10;-inkscape-font-specification:CMSS10;writing-mode:lr-tb;fill:#000000;fill-opacity:1;fill-rule:nonzero;stroke:none"
                     id="text98"><tspan
                       x="0 6.6420655"
                       y="0"
                       id="tspan96">A2</tspan></text>
                  <g
                     id="g100"
                     transform="translate(51.6,62.822)" />
                </g>
              </g>
              <g
                 id="g102"
                 transform="translate(-36.708,-81.58)" />
            </g>
          </g>
          <g
             id="g104">
            <path
               d="m 52.03372,56.69362 c 0,5.25423 -4.25929,9.51352 -9.51352,9.51352 -5.25422,0 -9.51352,-4.25929 -9.51352,-9.51352 0,-5.25424 4.2593,-9.51352 9.51352,-9.51352 5.25423,0 9.51352,4.25928 9.51352,9.51352 z"
               style="fill:none;stroke:#000000;stroke-width:0.3985;stroke-linecap:butt;stroke-linejoin:miter;stroke-miterlimit:10;stroke-dasharray:none;stroke-opacity:1"
               id="path106" />
            <g
               id="g108"
               transform="translate(36.708,53.234)">
              <g
                 id="g110">
                <g
                   id="g112"
                   transform="translate(-51.6,-34.476)">
                  <text
                     xml:space="preserve"
                     transform="matrix(1,0,0,-1,51.6,34.476)"
                     style="font-variant:normal;font-weight:normal;font-size:9.9626px;font-family:CMSS10;-inkscape-font-specification:CMSS10;writing-mode:lr-tb;fill:#000000;fill-opacity:1;fill-rule:nonzero;stroke:none"
                     id="text116"><tspan
                       x="0 6.6420655"
                       y="0"
                       id="tspan114">B2</tspan></text>
                  <g
                     id="g118"
                     transform="translate(51.6,34.476)" />
                </g>
              </g>
              <g
                 id="g120"
                 transform="translate(-36.708,-53.234)" />
            </g>
          </g>
          <g
             id="g122">
            <path
               d="m 51.90967,28.3468 c 0,5.18572 -4.20375,9.38947 -9.38947,9.38947 -5.18571,0 -9.38948,-4.20375 -9.38948,-9.38947 0,-5.18571 4.20377,-9.38946 9.38948,-9.38946 5.18572,0 9.38947,4.20375 9.38947,9.38946 z"
               style="fill:none;stroke:#000000;stroke-width:0.3985;stroke-linecap:butt;stroke-linejoin:miter;stroke-miterlimit:10;stroke-dasharray:none;stroke-opacity:1"
               id="path124" />
            <g
               id="g126"
               transform="translate(36.846,24.887)">
              <g
                 id="g128">
                <g
                   id="g130"
                   transform="translate(-51.738,-6.129)">
                  <text
                     xml:space="preserve"
                     transform="matrix(1,0,0,-1,51.738,6.129)"
                     style="font-variant:normal;font-weight:normal;font-size:9.9626px;font-family:CMSS10;-inkscape-font-specification:CMSS10;writing-mode:lr-tb;fill:#000000;fill-opacity:1;fill-rule:nonzero;stroke:none"
                     id="text134"><tspan
                       x="0 6.3651052"
                       y="0"
                       id="tspan132">C2</tspan></text>
                  <g
                     id="g136"
                     transform="translate(51.738,6.129)" />
                </g>
              </g>
              <g
                 id="g138"
                 transform="translate(-36.846,-24.887)" />
            </g>
          </g>
          <path
             d="m 45.84221,65.82037 c 1.34622,3.6987 1.34622,6.39458 0.15675,9.66266"
             style="fill:none;stroke:#000000;stroke-width:0.3985;stroke-linecap:butt;stroke-linejoin:miter;stroke-miterlimit:10;stroke-dasharray:none;stroke-opacity:1"
             id="path140" />
          <g
             id="g142"
             transform="matrix(-0.34204,0.93967,-0.93967,-0.34204,45.99896,75.48303)">
            <g
               id="g144">
              <path
                 d="M -1.19551,1.59401 C -1.09587,0.99626 0,0.09961 0.29886,0 0,-0.09961 -1.09587,-0.99626 -1.19551,-1.59401"
                 style="fill:none;stroke:#000000;stroke-width:0.31879;stroke-linecap:round;stroke-linejoin:round;stroke-miterlimit:10;stroke-dasharray:none;stroke-opacity:1"
                 id="path146" />
            </g>
          </g>
          <path
             d="m 39.24062,37.357 c -1.38257,3.75012 -1.39385,6.44839 -0.19738,9.77857"
             style="fill:none;stroke:#000000;stroke-width:0.3985;stroke-linecap:butt;stroke-linejoin:miter;stroke-miterlimit:10;stroke-dasharray:none;stroke-opacity:1"
             id="path148" />
          <g
             id="g150"
             transform="matrix(0.33812,0.94107,-0.94107,0.33812,39.04323,47.13556)">
            <g
               id="g152">
              <path
                 d="M -1.19551,1.59401 C -1.09587,0.99626 0,0.09961 0.29886,0 0,-0.09961 -1.09587,-0.99626 -1.19551,-1.59401"
                 style="fill:none;stroke:#000000;stroke-width:0.31879;stroke-linecap:round;stroke-linejoin:round;stroke-miterlimit:10;stroke-dasharray:none;stroke-opacity:1"
                 id="path154" />
            </g>
          </g>
          <g
             id="g156">
            <path
               d="M 9.71277,85.04042 H 32.47368"
               style="fill:none;stroke:#808080;stroke-width:0.19925;stroke-linecap:butt;stroke-linejoin:miter;stroke-miterlimit:10;stroke-dasharray:none;stroke-opacity:1"
               id="path158" />
            <g
               id="g160"
               transform="translate(32.47368,85.04042)">
              <g
                 id="g162">
                <path
                   d="M -1.01619,1.35492 C -0.93149,0.84682 0,0.08467 0.25403,0 0,-0.08467 -0.93149,-0.84682 -1.01619,-1.35492"
                   style="fill:none;stroke:#808080;stroke-width:0.15938;stroke-linecap:round;stroke-linejoin:round;stroke-miterlimit:10;stroke-dasharray:none;stroke-opacity:1"
                   id="path164" />
              </g>
            </g>
          </g>
          <g
             id="g166">
            <path
               d="M 9.71277,56.69362 H 32.47368"
               style="fill:none;stroke:#808080;stroke-width:0.19925;stroke-linecap:butt;stroke-linejoin:miter;stroke-miterlimit:10;stroke-dasharray:none;stroke-opacity:1"
               id="path168" />
            <g
               id="g170"
               transform="translate(32.47368,56.69362)">
              <g
                 id="g172">
                <path
                   d="M -1.01619,1.35492 C -0.93149,0.84682 0,0.08467 0.25403,0 0,-0.08467 -0.93149,-0.84682 -1.01619,-1.35492"
                   style="fill:none;stroke:#808080;stroke-width:0.15938;stroke-linecap:round;stroke-linejoin:round;stroke-miterlimit:10;stroke-dasharray:none;stroke-opacity:1"
                   id="path174" />
              </g>
            </g>
          </g>
          <g
             id="g176">
            <path
               d="M 9.58871,28.3468 H 32.59773"
               style="fill:none;stroke:#808080;stroke-width:0.19925;stroke-linecap:butt;stroke-linejoin:miter;stroke-miterlimit:10;stroke-dasharray:none;stroke-opacity:1"
               id="path178" />
            <g
               id="g180"
               transform="translate(32.59773,28.3468)">
              <g
                 id="g182">
                <path
                   d="M -1.01619,1.35492 C -0.93149,0.84682 0,0.08467 0.25403,0 0,-0.08467 -0.93149,-0.84682 -1.01619,-1.35492"
                   style="fill:none;stroke:#808080;stroke-width:0.15938;stroke-linecap:round;stroke-linejoin:round;stroke-miterlimit:10;stroke-dasharray:none;stroke-opacity:1"
                   id="path184" />
              </g>
            </g>
          </g>
          <path
             d="M 8.08116,62.08101 34.05774,79.39883"
             style="fill:none;stroke:#000000;stroke-width:0.3985;stroke-linecap:butt;stroke-linejoin:miter;stroke-miterlimit:10;stroke-dasharray:none;stroke-opacity:1"
             id="path186" />
          <g
             id="g188"
             transform="matrix(0.83202,0.55467,-0.55467,0.83202,34.05772,79.39883)">
            <g
               id="g190">
              <path
                 d="M -1.19551,1.59401 C -1.09587,0.99626 0,0.09961 0.29886,0 0,-0.09961 -1.09587,-0.99626 -1.19551,-1.59401"
                 style="fill:none;stroke:#000000;stroke-width:0.31879;stroke-linecap:round;stroke-linejoin:round;stroke-miterlimit:10;stroke-dasharray:none;stroke-opacity:1"
                 id="path192" />
            </g>
          </g>
          <g
             id="g194">
            <path
               d="m 94.55394,85.04042 c 0,5.25423 -4.25929,9.51352 -9.51352,9.51352 -5.25422,0 -9.51352,-4.25929 -9.51352,-9.51352 0,-5.25422 4.2593,-9.51352 9.51352,-9.51352 5.25423,0 9.51352,4.2593 9.51352,9.51352 z"
               style="fill:none;stroke:#000000;stroke-width:0.3985;stroke-linecap:butt;stroke-linejoin:miter;stroke-miterlimit:10;stroke-dasharray:none;stroke-opacity:1"
               id="path196" />
            <g
               id="g198"
               transform="translate(79.227,81.58)">
              <g
                 id="g200">
                <g
                   id="g202"
                   transform="translate(-94.119,-62.822)">
                  <text
                     xml:space="preserve"
                     transform="matrix(1,0,0,-1,94.119,62.822)"
                     style="font-variant:normal;font-weight:normal;font-size:9.9626px;font-family:CMSS10;-inkscape-font-specification:CMSS10;writing-mode:lr-tb;fill:#000000;fill-opacity:1;fill-rule:nonzero;stroke:none"
                     id="text206"><tspan
                       x="0 6.6420655"
                       y="0"
                       id="tspan204">A3</tspan></text>
                  <g
                     id="g208"
                     transform="translate(94.119,62.822)" />
                </g>
              </g>
              <g
                 id="g210"
                 transform="translate(-79.227,-81.58)" />
            </g>
          </g>
          <g
             id="g212">
            <path
               d="m 94.55394,56.69362 c 0,5.25423 -4.25929,9.51352 -9.51352,9.51352 -5.25422,0 -9.51352,-4.25929 -9.51352,-9.51352 0,-5.25424 4.2593,-9.51352 9.51352,-9.51352 5.25423,0 9.51352,4.25928 9.51352,9.51352 z"
               style="fill:none;stroke:#000000;stroke-width:0.3985;stroke-linecap:butt;stroke-linejoin:miter;stroke-miterlimit:10;stroke-dasharray:none;stroke-opacity:1"
               id="path214" />
            <g
               id="g216"
               transform="translate(79.227,53.234)">
              <g
                 id="g218">
                <g
                   id="g220"
                   transform="translate(-94.119,-34.476)">
                  <text
                     xml:space="preserve"
                     transform="matrix(1,0,0,-1,94.119,34.476)"
                     style="font-variant:normal;font-weight:normal;font-size:9.9626px;font-family:CMSS10;-inkscape-font-specification:CMSS10;writing-mode:lr-tb;fill:#000000;fill-opacity:1;fill-rule:nonzero;stroke:none"
                     id="text224"><tspan
                       x="0 6.6420655"
                       y="0"
                       id="tspan222">B3</tspan></text>
                  <g
                     id="g226"
                     transform="translate(94.119,34.476)" />
                </g>
              </g>
              <g
                 id="g228"
                 transform="translate(-79.227,-53.234)" />
            </g>
          </g>
          <g
             id="g230">
            <path
               d="m 94.42989,28.3468 c 0,5.18572 -4.20375,9.38947 -9.38947,9.38947 -5.18572,0 -9.38946,-4.20375 -9.38946,-9.38947 0,-5.18571 4.20374,-9.38946 9.38946,-9.38946 5.18572,0 9.38947,4.20375 9.38947,9.38946 z"
               style="fill:none;stroke:#000000;stroke-width:0.3985;stroke-linecap:butt;stroke-linejoin:miter;stroke-miterlimit:10;stroke-dasharray:none;stroke-opacity:1"
               id="path232" />
            <g
               id="g234"
               transform="translate(79.366,24.887)">
              <g
                 id="g236">
                <g
                   id="g238"
                   transform="translate(-94.258,-6.129)">
                  <text
                     xml:space="preserve"
                     transform="matrix(1,0,0,-1,94.258,6.129)"
                     style="font-variant:normal;font-weight:normal;font-size:9.9626px;font-family:CMSS10;-inkscape-font-specification:CMSS10;writing-mode:lr-tb;fill:#000000;fill-opacity:1;fill-rule:nonzero;stroke:none"
                     id="text242"><tspan
                       x="0 6.3651052"
                       y="0"
                       id="tspan240">C3</tspan></text>
                  <g
                     id="g244"
                     transform="translate(94.258,6.129)" />
                </g>
              </g>
              <g
                 id="g246"
                 transform="translate(-79.366,-24.887)" />
            </g>
          </g>
          <path
             d="M 81.71841,75.91365 C 80.37218,72.21495 80.37218,69.51907 81.56166,66.251"
             style="fill:none;stroke:#000000;stroke-width:0.3985;stroke-linecap:butt;stroke-linejoin:miter;stroke-miterlimit:10;stroke-dasharray:none;stroke-opacity:1"
             id="path248" />
          <g
             id="g250"
             transform="matrix(0.34204,-0.93967,0.93967,0.34204,81.56166,66.251)">
            <g
               id="g252">
              <path
                 d="M -1.19551,1.59401 C -1.09587,0.99626 0,0.09961 0.29886,0 0,-0.09961 -1.09587,-0.99626 -1.19551,-1.59401"
                 style="fill:none;stroke:#000000;stroke-width:0.31879;stroke-linecap:round;stroke-linejoin:round;stroke-miterlimit:10;stroke-dasharray:none;stroke-opacity:1"
                 id="path254" />
            </g>
          </g>
          <path
             d="m 88.36243,47.56685 c 1.35142,-3.76146 1.34015,-6.45973 0.11609,-9.77989"
             style="fill:none;stroke:#000000;stroke-width:0.3985;stroke-linecap:butt;stroke-linejoin:miter;stroke-miterlimit:10;stroke-dasharray:none;stroke-opacity:1"
             id="path256" />
          <g
             id="g258"
             transform="matrix(-0.34589,-0.93823,0.93823,-0.34589,88.47852,37.78697)">
            <g
               id="g260">
              <path
                 d="M -1.19551,1.59401 C -1.09587,0.99626 0,0.09961 0.29886,0 0,-0.09961 -1.09587,-0.99626 -1.19551,-1.59401"
                 style="fill:none;stroke:#000000;stroke-width:0.31879;stroke-linecap:round;stroke-linejoin:round;stroke-miterlimit:10;stroke-dasharray:none;stroke-opacity:1"
                 id="path262" />
            </g>
          </g>
          <path
             d="m 81.76083,37.357 c -1.38256,3.75012 -1.39383,6.44839 -0.19735,9.77857"
             style="fill:none;stroke:#000000;stroke-width:0.3985;stroke-linecap:butt;stroke-linejoin:miter;stroke-miterlimit:10;stroke-dasharray:none;stroke-opacity:1"
             id="path264" />
          <g
             id="g266"
             transform="matrix(0.33812,0.94107,-0.94107,0.33812,81.56346,47.13556)">
            <g
               id="g268">
              <path
                 d="M -1.19551,1.59401 C -1.09587,0.99626 0,0.09961 0.29886,0 0,-0.09961 -1.09587,-0.99626 -1.19551,-1.59401"
                 style="fill:none;stroke:#000000;stroke-width:0.31879;stroke-linecap:round;stroke-linejoin:round;stroke-miterlimit:10;stroke-dasharray:none;stroke-opacity:1"
                 id="path270" />
            </g>
          </g>
          <g
             id="g272">
            <path
               d="M 52.23297,85.04042 H 74.99391"
               style="fill:none;stroke:#808080;stroke-width:0.19925;stroke-linecap:butt;stroke-linejoin:miter;stroke-miterlimit:10;stroke-dasharray:none;stroke-opacity:1"
               id="path274" />
            <g
               id="g276"
               transform="translate(74.99391,85.04042)">
              <g
                 id="g278">
                <path
                   d="M -1.01619,1.35492 C -0.93149,0.84682 0,0.08467 0.25403,0 0,-0.08467 -0.93149,-0.84682 -1.01619,-1.35492"
                   style="fill:none;stroke:#808080;stroke-width:0.15938;stroke-linecap:round;stroke-linejoin:round;stroke-miterlimit:10;stroke-dasharray:none;stroke-opacity:1"
                   id="path280" />
              </g>
            </g>
          </g>
          <g
             id="g282">
            <path
               d="M 52.23297,56.69362 H 74.99391"
               style="fill:none;stroke:#808080;stroke-width:0.19925;stroke-linecap:butt;stroke-linejoin:miter;stroke-miterlimit:10;stroke-dasharray:none;stroke-opacity:1"
               id="path284" />
            <g
               id="g286"
               transform="translate(74.99391,56.69362)">
              <g
                 id="g288">
                <path
                   d="M -1.01619,1.35492 C -0.93149,0.84682 0,0.08467 0.25403,0 0,-0.08467 -0.93149,-0.84682 -1.01619,-1.35492"
                   style="fill:none;stroke:#808080;stroke-width:0.15938;stroke-linecap:round;stroke-linejoin:round;stroke-miterlimit:10;stroke-dasharray:none;stroke-opacity:1"
                   id="path290" />
              </g>
            </g>
          </g>
          <g
             id="g292">
            <path
               d="M 52.10892,28.3468 H 75.11795"
               style="fill:none;stroke:#808080;stroke-width:0.19925;stroke-linecap:butt;stroke-linejoin:miter;stroke-miterlimit:10;stroke-dasharray:none;stroke-opacity:1"
               id="path294" />
            <g
               id="g296"
               transform="translate(75.11795,28.3468)">
              <g
                 id="g298">
                <path
                   d="M -1.01619,1.35492 C -0.93149,0.84682 0,0.08467 0.25403,0 0,-0.08467 -0.93149,-0.84682 -1.01619,-1.35492"
                   style="fill:none;stroke:#808080;stroke-width:0.15938;stroke-linecap:round;stroke-linejoin:round;stroke-miterlimit:10;stroke-dasharray:none;stroke-opacity:1"
                   id="path300" />
              </g>
            </g>
          </g>
          <path
             d="M 48.27335,36.0175 78.9379,76.90388"
             style="fill:none;stroke:#000000;stroke-width:0.3985;stroke-linecap:butt;stroke-linejoin:miter;stroke-miterlimit:10;stroke-dasharray:none;stroke-opacity:1"
             id="path302" />
          <g
             id="g304"
             transform="matrix(0.59999,0.79997,-0.79997,0.59999,78.93788,76.90387)">
            <g
               id="g306">
              <path
                 d="M -1.19551,1.59401 C -1.09587,0.99626 0,0.09961 0.29886,0 0,-0.09961 -1.09587,-0.99626 -1.19551,-1.59401"
                 style="fill:none;stroke:#000000;stroke-width:0.31879;stroke-linecap:round;stroke-linejoin:round;stroke-miterlimit:10;stroke-dasharray:none;stroke-opacity:1"
                 id="path308" />
            </g>
          </g>
          <path
             d="M 50.60138,62.08101 76.57797,79.39883"
             style="fill:none;stroke:#000000;stroke-width:0.3985;stroke-linecap:butt;stroke-linejoin:miter;stroke-miterlimit:10;stroke-dasharray:none;stroke-opacity:1"
             id="path310" />
          <g
             id="g312"
             transform="matrix(0.83202,0.55467,-0.55467,0.83202,76.57796,79.39883)">
            <g
               id="g314">
              <path
                 d="M -1.19551,1.59401 C -1.09587,0.99626 0,0.09961 0.29886,0 0,-0.09961 -1.09587,-0.99626 -1.19551,-1.59401"
                 style="fill:none;stroke:#000000;stroke-width:0.31879;stroke-linecap:round;stroke-linejoin:round;stroke-miterlimit:10;stroke-dasharray:none;stroke-opacity:1"
                 id="path316" />
            </g>
          </g>
          <path
             d="M 9.09622,31.37881 75.39178,53.47746"
             style="fill:none;stroke:#000000;stroke-width:0.3985;stroke-linecap:butt;stroke-linejoin:miter;stroke-miterlimit:10;stroke-dasharray:none;stroke-opacity:1"
             id="path318" />
          <g
             id="g320"
             transform="matrix(0.94864,0.31621,-0.31621,0.94864,75.39178,53.47745)">
            <g
               id="g322">
              <path
                 d="M -1.19551,1.59401 C -1.09587,0.99626 0,0.09961 0.29886,0 0,-0.09961 -1.09587,-0.99626 -1.19551,-1.59401"
                 style="fill:none;stroke:#000000;stroke-width:0.31879;stroke-linecap:round;stroke-linejoin:round;stroke-miterlimit:10;stroke-dasharray:none;stroke-opacity:1"
                 id="path324" />
            </g>
          </g>
          <g
             id="g326">
            <path
               d="m 137.07414,85.04042 c 0,5.25423 -4.25927,9.51352 -9.51352,9.51352 -5.25422,0 -9.51352,-4.25929 -9.51352,-9.51352 0,-5.25422 4.2593,-9.51352 9.51352,-9.51352 5.25425,0 9.51352,4.2593 9.51352,9.51352 z"
               style="fill:none;stroke:#000000;stroke-width:0.3985;stroke-linecap:butt;stroke-linejoin:miter;stroke-miterlimit:10;stroke-dasharray:none;stroke-opacity:1"
               id="path328" />
            <g
               id="g330"
               transform="translate(121.747,81.58)">
              <g
                 id="g332">
                <g
                   id="g334"
                   transform="translate(-136.639,-62.822)">
                  <text
                     xml:space="preserve"
                     transform="matrix(1,0,0,-1,136.639,62.822)"
                     style="font-variant:normal;font-weight:normal;font-size:9.9626px;font-family:CMSS10;-inkscape-font-specification:CMSS10;writing-mode:lr-tb;fill:#000000;fill-opacity:1;fill-rule:nonzero;stroke:none"
                     id="text338"><tspan
                       x="0 6.6420655"
                       y="0"
                       id="tspan336">A4</tspan></text>
                  <g
                     id="g340"
                     transform="translate(136.639,62.822)" />
                </g>
              </g>
              <g
                 id="g342"
                 transform="translate(-121.747,-81.58)" />
            </g>
          </g>
          <g
             id="g344">
            <path
               d="m 137.07414,56.69362 c 0,5.25423 -4.25927,9.51352 -9.51352,9.51352 -5.25422,0 -9.51352,-4.25929 -9.51352,-9.51352 0,-5.25424 4.2593,-9.51352 9.51352,-9.51352 5.25425,0 9.51352,4.25928 9.51352,9.51352 z"
               style="fill:none;stroke:#000000;stroke-width:0.3985;stroke-linecap:butt;stroke-linejoin:miter;stroke-miterlimit:10;stroke-dasharray:none;stroke-opacity:1"
               id="path346" />
            <g
               id="g348"
               transform="translate(121.747,53.234)">
              <g
                 id="g350">
                <g
                   id="g352"
                   transform="translate(-136.639,-34.476)">
                  <text
                     xml:space="preserve"
                     transform="matrix(1,0,0,-1,136.639,34.476)"
                     style="font-variant:normal;font-weight:normal;font-size:9.9626px;font-family:CMSS10;-inkscape-font-specification:CMSS10;writing-mode:lr-tb;fill:#000000;fill-opacity:1;fill-rule:nonzero;stroke:none"
                     id="text356"><tspan
                       x="0 6.6420655"
                       y="0"
                       id="tspan354">B4</tspan></text>
                  <g
                     id="g358"
                     transform="translate(136.639,34.476)" />
                </g>
              </g>
              <g
                 id="g360"
                 transform="translate(-121.747,-53.234)" />
            </g>
          </g>
          <g
             id="g362">
            <path
               d="m 136.9501,28.3468 c 0,5.18572 -4.20376,9.38947 -9.38948,9.38947 -5.18571,0 -9.38946,-4.20375 -9.38946,-9.38947 0,-5.18571 4.20375,-9.38946 9.38946,-9.38946 5.18572,0 9.38948,4.20375 9.38948,9.38946 z"
               style="fill:none;stroke:#000000;stroke-width:0.3985;stroke-linecap:butt;stroke-linejoin:miter;stroke-miterlimit:10;stroke-dasharray:none;stroke-opacity:1"
               id="path364" />
            <g
               id="g366"
               transform="translate(121.885,24.887)">
              <g
                 id="g368">
                <g
                   id="g370"
                   transform="translate(-136.777,-6.129)">
                  <text
                     xml:space="preserve"
                     transform="matrix(1,0,0,-1,136.777,6.129)"
                     style="font-variant:normal;font-weight:normal;font-size:9.9626px;font-family:CMSS10;-inkscape-font-specification:CMSS10;writing-mode:lr-tb;fill:#000000;fill-opacity:1;fill-rule:nonzero;stroke:none"
                     id="text374"><tspan
                       x="0 6.3651052"
                       y="0"
                       id="tspan372">C4</tspan></text>
                  <g
                     id="g376"
                     transform="translate(136.777,6.129)" />
                </g>
              </g>
              <g
                 id="g378"
                 transform="translate(-121.885,-24.887)" />
            </g>
          </g>
          <path
             d="M 124.23862,75.91365 C 122.8924,72.21495 122.8924,69.51907 124.08186,66.251"
             style="fill:none;stroke:#000000;stroke-width:0.3985;stroke-linecap:butt;stroke-linejoin:miter;stroke-miterlimit:10;stroke-dasharray:none;stroke-opacity:1"
             id="path380" />
          <g
             id="g382"
             transform="matrix(0.34204,-0.93967,0.93967,0.34204,124.08186,66.251)">
            <g
               id="g384">
              <path
                 d="M -1.19551,1.59401 C -1.09587,0.99626 0,0.09961 0.29886,0 0,-0.09961 -1.09587,-0.99626 -1.19551,-1.59401"
                 style="fill:none;stroke:#000000;stroke-width:0.31879;stroke-linecap:round;stroke-linejoin:round;stroke-miterlimit:10;stroke-dasharray:none;stroke-opacity:1"
                 id="path386" />
            </g>
          </g>
          <path
             d="m 130.84021,37.357 c 1.38259,3.75012 1.39384,6.44839 0.19737,9.77857"
             style="fill:none;stroke:#000000;stroke-width:0.3985;stroke-linecap:butt;stroke-linejoin:miter;stroke-miterlimit:10;stroke-dasharray:none;stroke-opacity:1"
             id="path388" />
          <g
             id="g390"
             transform="matrix(-0.33812,0.94107,-0.94107,-0.33812,131.0376,47.13556)">
            <g
               id="g392">
              <path
                 d="M -1.19551,1.59401 C -1.09587,0.99626 0,0.09961 0.29886,0 0,-0.09961 -1.09587,-0.99626 -1.19551,-1.59401"
                 style="fill:none;stroke:#000000;stroke-width:0.31879;stroke-linecap:round;stroke-linejoin:round;stroke-miterlimit:10;stroke-dasharray:none;stroke-opacity:1"
                 id="path394" />
            </g>
          </g>
          <g
             id="g396">
            <path
               d="m 94.75319,85.04042 h 22.76092"
               style="fill:none;stroke:#808080;stroke-width:0.19925;stroke-linecap:butt;stroke-linejoin:miter;stroke-miterlimit:10;stroke-dasharray:none;stroke-opacity:1"
               id="path398" />
            <g
               id="g400"
               transform="translate(117.51411,85.04042)">
              <g
                 id="g402">
                <path
                   d="M -1.01619,1.35492 C -0.93149,0.84682 0,0.08467 0.25403,0 0,-0.08467 -0.93149,-0.84682 -1.01619,-1.35492"
                   style="fill:none;stroke:#808080;stroke-width:0.15938;stroke-linecap:round;stroke-linejoin:round;stroke-miterlimit:10;stroke-dasharray:none;stroke-opacity:1"
                   id="path404" />
              </g>
            </g>
          </g>
          <g
             id="g406">
            <path
               d="m 94.75319,56.69362 h 22.76092"
               style="fill:none;stroke:#808080;stroke-width:0.19925;stroke-linecap:butt;stroke-linejoin:miter;stroke-miterlimit:10;stroke-dasharray:none;stroke-opacity:1"
               id="path408" />
            <g
               id="g410"
               transform="translate(117.51411,56.69362)">
              <g
                 id="g412">
                <path
                   d="M -1.01619,1.35492 C -0.93149,0.84682 0,0.08467 0.25403,0 0,-0.08467 -0.93149,-0.84682 -1.01619,-1.35492"
                   style="fill:none;stroke:#808080;stroke-width:0.15938;stroke-linecap:round;stroke-linejoin:round;stroke-miterlimit:10;stroke-dasharray:none;stroke-opacity:1"
                   id="path414" />
              </g>
            </g>
          </g>
          <g
             id="g416">
            <path
               d="m 94.62915,28.3468 h 23.00902"
               style="fill:none;stroke:#808080;stroke-width:0.19925;stroke-linecap:butt;stroke-linejoin:miter;stroke-miterlimit:10;stroke-dasharray:none;stroke-opacity:1"
               id="path418" />
            <g
               id="g420"
               transform="translate(117.63817,28.3468)">
              <g
                 id="g422">
                <path
                   d="M -1.01619,1.35492 C -0.93149,0.84682 0,0.08467 0.25403,0 0,-0.08467 -0.93149,-0.84682 -1.01619,-1.35492"
                   style="fill:none;stroke:#808080;stroke-width:0.15938;stroke-linecap:round;stroke-linejoin:round;stroke-miterlimit:10;stroke-dasharray:none;stroke-opacity:1"
                   id="path424" />
              </g>
            </g>
          </g>
          <path
             d="M 93.1216,51.30621 119.20139,33.91959"
             style="fill:none;stroke:#000000;stroke-width:0.3985;stroke-linecap:butt;stroke-linejoin:miter;stroke-miterlimit:10;stroke-dasharray:none;stroke-opacity:1"
             id="path426" />
          <g
             id="g428"
             transform="matrix(0.83202,-0.55467,0.55467,0.83202,119.20137,33.91959)">
            <g
               id="g430">
              <path
                 d="M -1.19551,1.59401 C -1.09587,0.99626 0,0.09961 0.29886,0 0,-0.09961 -1.09587,-0.99626 -1.19551,-1.59401"
                 style="fill:none;stroke:#000000;stroke-width:0.31879;stroke-linecap:round;stroke-linejoin:round;stroke-miterlimit:10;stroke-dasharray:none;stroke-opacity:1"
                 id="path432" />
            </g>
          </g>
          <path
             d="M 93.1216,79.65303 119.09818,62.3352"
             style="fill:none;stroke:#000000;stroke-width:0.3985;stroke-linecap:butt;stroke-linejoin:miter;stroke-miterlimit:10;stroke-dasharray:none;stroke-opacity:1"
             id="path434" />
          <g
             id="g436"
             transform="matrix(0.83202,-0.55467,0.55467,0.83202,119.09816,62.3352)">
            <g
               id="g438">
              <path
                 d="M -1.19551,1.59401 C -1.09587,0.99626 0,0.09961 0.29886,0 0,-0.09961 -1.09587,-0.99626 -1.19551,-1.59401"
                 style="fill:none;stroke:#000000;stroke-width:0.31879;stroke-linecap:round;stroke-linejoin:round;stroke-miterlimit:10;stroke-dasharray:none;stroke-opacity:1"
                 id="path440" />
            </g>
          </g>
          <path
             d="M 90.868,77.27048 121.53253,36.38411"
             style="fill:none;stroke:#000000;stroke-width:0.3985;stroke-linecap:butt;stroke-linejoin:miter;stroke-miterlimit:10;stroke-dasharray:none;stroke-opacity:1"
             id="path442" />
          <g
             id="g444"
             transform="matrix(0.59999,-0.79997,0.79997,0.59999,121.53252,36.38412)">
            <g
               id="g446">
              <path
                 d="M -1.19551,1.59401 C -1.09587,0.99626 0,0.09961 0.29886,0 0,-0.09961 -1.09587,-0.99626 -1.19551,-1.59401"
                 style="fill:none;stroke:#000000;stroke-width:0.31879;stroke-linecap:round;stroke-linejoin:round;stroke-miterlimit:10;stroke-dasharray:none;stroke-opacity:1"
                 id="path448" />
            </g>
          </g>
        </g>
      </g>
    </g>
  </g>
</svg>
