<?xml version="1.0" encoding="utf-8" standalone="no"?>
<!DOCTYPE svg PUBLIC "-//W3C//DTD SVG 1.1//EN"
  "http://www.w3.org/Graphics/SVG/1.1/DTD/svg11.dtd">
<svg xmlns:xlink="http://www.w3.org/1999/xlink" width="908.308125pt" height="502.577656pt" viewBox="0 0 908.308125 502.577656" xmlns="http://www.w3.org/2000/svg" version="1.1">
 <metadata>
  <rdf:RDF xmlns:dc="http://purl.org/dc/elements/1.1/" xmlns:cc="http://creativecommons.org/ns#" xmlns:rdf="http://www.w3.org/1999/02/22-rdf-syntax-ns#">
   <cc:Work>
    <dc:type rdf:resource="http://purl.org/dc/dcmitype/StillImage"/>
    <dc:date>2025-02-03T09:11:53.701859</dc:date>
    <dc:format>image/svg+xml</dc:format>
    <dc:creator>
     <cc:Agent>
      <dc:title>Matplotlib v3.9.2, https://matplotlib.org/</dc:title>
     </cc:Agent>
    </dc:creator>
   </cc:Work>
  </rdf:RDF>
 </metadata>
 <defs>
  <style type="text/css">*{stroke-linejoin: round; stroke-linecap: butt}</style>
 </defs>
 <g id="figure_1">
  <g id="patch_1">
   <path d="M 0 502.577656 
L 908.308125 502.577656 
L 908.308125 0 
L 0 0 
z
" style="fill: #ffffff"/>
  </g>
  <g id="axes_1">
   <g id="patch_2">
    <path d="M 98.911875 431.358281 
L 880.111875 431.358281 
L 880.111875 15.558281 
L 98.911875 15.558281 
z
" style="fill: #ffffff"/>
   </g>
   <g id="matplotlib.axis_1">
    <g id="xtick_1">
     <g id="line2d_1">
      <defs>
       <path id="m41bd9fda8f" d="M 0 0 
L 0 12 
" style="stroke: #262626; stroke-width: 2.5"/>
      </defs>
      <g>
       <use xlink:href="#m41bd9fda8f" x="136.111875" y="431.358281" style="fill: #262626; stroke: #262626; stroke-width: 2.5"/>
      </g>
     </g>
     <g id="text_1">
      <!-- 0 -->
      <g style="fill: #262626" transform="translate(129.113125 463.574844) scale(0.22 -0.22)">
       <defs>
        <path id="DejaVuSans-30" d="M 2034 4250 
Q 1547 4250 1301 3770 
Q 1056 3291 1056 2328 
Q 1056 1369 1301 889 
Q 1547 409 2034 409 
Q 2525 409 2770 889 
Q 3016 1369 3016 2328 
Q 3016 3291 2770 3770 
Q 2525 4250 2034 4250 
z
M 2034 4750 
Q 2819 4750 3233 4129 
Q 3647 3509 3647 2328 
Q 3647 1150 3233 529 
Q 2819 -91 2034 -91 
Q 1250 -91 836 529 
Q 422 1150 422 2328 
Q 422 3509 836 4129 
Q 1250 4750 2034 4750 
z
" transform="scale(0.015625)"/>
       </defs>
       <use xlink:href="#DejaVuSans-30"/>
      </g>
     </g>
    </g>
    <g id="xtick_2">
     <g id="line2d_2">
      <g>
       <use xlink:href="#m41bd9fda8f" x="229.111875" y="431.358281" style="fill: #262626; stroke: #262626; stroke-width: 2.5"/>
      </g>
     </g>
     <g id="text_2">
      <!-- 25 -->
      <g style="fill: #262626" transform="translate(215.114375 463.574844) scale(0.22 -0.22)">
       <defs>
        <path id="DejaVuSans-32" d="M 1228 531 
L 3431 531 
L 3431 0 
L 469 0 
L 469 531 
Q 828 903 1448 1529 
Q 2069 2156 2228 2338 
Q 2531 2678 2651 2914 
Q 2772 3150 2772 3378 
Q 2772 3750 2511 3984 
Q 2250 4219 1831 4219 
Q 1534 4219 1204 4116 
Q 875 4013 500 3803 
L 500 4441 
Q 881 4594 1212 4672 
Q 1544 4750 1819 4750 
Q 2544 4750 2975 4387 
Q 3406 4025 3406 3419 
Q 3406 3131 3298 2873 
Q 3191 2616 2906 2266 
Q 2828 2175 2409 1742 
Q 1991 1309 1228 531 
z
" transform="scale(0.015625)"/>
        <path id="DejaVuSans-35" d="M 691 4666 
L 3169 4666 
L 3169 4134 
L 1269 4134 
L 1269 2991 
Q 1406 3038 1543 3061 
Q 1681 3084 1819 3084 
Q 2600 3084 3056 2656 
Q 3513 2228 3513 1497 
Q 3513 744 3044 326 
Q 2575 -91 1722 -91 
Q 1428 -91 1123 -41 
Q 819 9 494 109 
L 494 744 
Q 775 591 1075 516 
Q 1375 441 1709 441 
Q 2250 441 2565 725 
Q 2881 1009 2881 1497 
Q 2881 1984 2565 2268 
Q 2250 2553 1709 2553 
Q 1456 2553 1204 2497 
Q 953 2441 691 2322 
L 691 4666 
z
" transform="scale(0.015625)"/>
       </defs>
       <use xlink:href="#DejaVuSans-32"/>
       <use xlink:href="#DejaVuSans-35" x="63.623047"/>
      </g>
     </g>
    </g>
    <g id="xtick_3">
     <g id="line2d_3">
      <g>
       <use xlink:href="#m41bd9fda8f" x="322.111875" y="431.358281" style="fill: #262626; stroke: #262626; stroke-width: 2.5"/>
      </g>
     </g>
     <g id="text_3">
      <!-- 50 -->
      <g style="fill: #262626" transform="translate(308.114375 463.574844) scale(0.22 -0.22)">
       <use xlink:href="#DejaVuSans-35"/>
       <use xlink:href="#DejaVuSans-30" x="63.623047"/>
      </g>
     </g>
    </g>
    <g id="xtick_4">
     <g id="line2d_4">
      <g>
       <use xlink:href="#m41bd9fda8f" x="415.111875" y="431.358281" style="fill: #262626; stroke: #262626; stroke-width: 2.5"/>
      </g>
     </g>
     <g id="text_4">
      <!-- 75 -->
      <g style="fill: #262626" transform="translate(401.114375 463.574844) scale(0.22 -0.22)">
       <defs>
        <path id="DejaVuSans-37" d="M 525 4666 
L 3525 4666 
L 3525 4397 
L 1831 0 
L 1172 0 
L 2766 4134 
L 525 4134 
L 525 4666 
z
" transform="scale(0.015625)"/>
       </defs>
       <use xlink:href="#DejaVuSans-37"/>
       <use xlink:href="#DejaVuSans-35" x="63.623047"/>
      </g>
     </g>
    </g>
    <g id="xtick_5">
     <g id="line2d_5">
      <g>
       <use xlink:href="#m41bd9fda8f" x="508.111875" y="431.358281" style="fill: #262626; stroke: #262626; stroke-width: 2.5"/>
      </g>
     </g>
     <g id="text_5">
      <!-- 100 -->
      <g style="fill: #262626" transform="translate(487.115625 463.574844) scale(0.22 -0.22)">
       <defs>
        <path id="DejaVuSans-31" d="M 794 531 
L 1825 531 
L 1825 4091 
L 703 3866 
L 703 4441 
L 1819 4666 
L 2450 4666 
L 2450 531 
L 3481 531 
L 3481 0 
L 794 0 
L 794 531 
z
" transform="scale(0.015625)"/>
       </defs>
       <use xlink:href="#DejaVuSans-31"/>
       <use xlink:href="#DejaVuSans-30" x="63.623047"/>
       <use xlink:href="#DejaVuSans-30" x="127.246094"/>
      </g>
     </g>
    </g>
    <g id="xtick_6">
     <g id="line2d_6">
      <g>
       <use xlink:href="#m41bd9fda8f" x="601.111875" y="431.358281" style="fill: #262626; stroke: #262626; stroke-width: 2.5"/>
      </g>
     </g>
     <g id="text_6">
      <!-- 125 -->
      <g style="fill: #262626" transform="translate(580.115625 463.574844) scale(0.22 -0.22)">
       <use xlink:href="#DejaVuSans-31"/>
       <use xlink:href="#DejaVuSans-32" x="63.623047"/>
       <use xlink:href="#DejaVuSans-35" x="127.246094"/>
      </g>
     </g>
    </g>
    <g id="xtick_7">
     <g id="line2d_7">
      <g>
       <use xlink:href="#m41bd9fda8f" x="694.111875" y="431.358281" style="fill: #262626; stroke: #262626; stroke-width: 2.5"/>
      </g>
     </g>
     <g id="text_7">
      <!-- 150 -->
      <g style="fill: #262626" transform="translate(673.115625 463.574844) scale(0.22 -0.22)">
       <use xlink:href="#DejaVuSans-31"/>
       <use xlink:href="#DejaVuSans-35" x="63.623047"/>
       <use xlink:href="#DejaVuSans-30" x="127.246094"/>
      </g>
     </g>
    </g>
    <g id="xtick_8">
     <g id="line2d_8">
      <g>
       <use xlink:href="#m41bd9fda8f" x="787.111875" y="431.358281" style="fill: #262626; stroke: #262626; stroke-width: 2.5"/>
      </g>
     </g>
     <g id="text_8">
      <!-- 175 -->
      <g style="fill: #262626" transform="translate(766.115625 463.574844) scale(0.22 -0.22)">
       <use xlink:href="#DejaVuSans-31"/>
       <use xlink:href="#DejaVuSans-37" x="63.623047"/>
       <use xlink:href="#DejaVuSans-35" x="127.246094"/>
      </g>
     </g>
    </g>
    <g id="xtick_9">
     <g id="line2d_9">
      <g>
       <use xlink:href="#m41bd9fda8f" x="880.111875" y="431.358281" style="fill: #262626; stroke: #262626; stroke-width: 2.5"/>
      </g>
     </g>
     <g id="text_9">
      <!-- 200 -->
      <g style="fill: #262626" transform="translate(859.115625 463.574844) scale(0.22 -0.22)">
       <use xlink:href="#DejaVuSans-32"/>
       <use xlink:href="#DejaVuSans-30" x="63.623047"/>
       <use xlink:href="#DejaVuSans-30" x="127.246094"/>
      </g>
     </g>
    </g>
    <g id="text_10">
     <!-- hitting time -->
     <g style="fill: #262626" transform="translate(419.683125 490.386406) scale(0.24 -0.24)">
      <defs>
       <path id="DejaVuSans-68" d="M 3513 2113 
L 3513 0 
L 2938 0 
L 2938 2094 
Q 2938 2591 2744 2837 
Q 2550 3084 2163 3084 
Q 1697 3084 1428 2787 
Q 1159 2491 1159 1978 
L 1159 0 
L 581 0 
L 581 4863 
L 1159 4863 
L 1159 2956 
Q 1366 3272 1645 3428 
Q 1925 3584 2291 3584 
Q 2894 3584 3203 3211 
Q 3513 2838 3513 2113 
z
" transform="scale(0.015625)"/>
       <path id="DejaVuSans-69" d="M 603 3500 
L 1178 3500 
L 1178 0 
L 603 0 
L 603 3500 
z
M 603 4863 
L 1178 4863 
L 1178 4134 
L 603 4134 
L 603 4863 
z
" transform="scale(0.015625)"/>
       <path id="DejaVuSans-74" d="M 1172 4494 
L 1172 3500 
L 2356 3500 
L 2356 3053 
L 1172 3053 
L 1172 1153 
Q 1172 725 1289 603 
Q 1406 481 1766 481 
L 2356 481 
L 2356 0 
L 1766 0 
Q 1100 0 847 248 
Q 594 497 594 1153 
L 594 3053 
L 172 3053 
L 172 3500 
L 594 3500 
L 594 4494 
L 1172 4494 
z
" transform="scale(0.015625)"/>
       <path id="DejaVuSans-6e" d="M 3513 2113 
L 3513 0 
L 2938 0 
L 2938 2094 
Q 2938 2591 2744 2837 
Q 2550 3084 2163 3084 
Q 1697 3084 1428 2787 
Q 1159 2491 1159 1978 
L 1159 0 
L 581 0 
L 581 3500 
L 1159 3500 
L 1159 2956 
Q 1366 3272 1645 3428 
Q 1925 3584 2291 3584 
Q 2894 3584 3203 3211 
Q 3513 2838 3513 2113 
z
" transform="scale(0.015625)"/>
       <path id="DejaVuSans-67" d="M 2906 1791 
Q 2906 2416 2648 2759 
Q 2391 3103 1925 3103 
Q 1463 3103 1205 2759 
Q 947 2416 947 1791 
Q 947 1169 1205 825 
Q 1463 481 1925 481 
Q 2391 481 2648 825 
Q 2906 1169 2906 1791 
z
M 3481 434 
Q 3481 -459 3084 -895 
Q 2688 -1331 1869 -1331 
Q 1566 -1331 1297 -1286 
Q 1028 -1241 775 -1147 
L 775 -588 
Q 1028 -725 1275 -790 
Q 1522 -856 1778 -856 
Q 2344 -856 2625 -561 
Q 2906 -266 2906 331 
L 2906 616 
Q 2728 306 2450 153 
Q 2172 0 1784 0 
Q 1141 0 747 490 
Q 353 981 353 1791 
Q 353 2603 747 3093 
Q 1141 3584 1784 3584 
Q 2172 3584 2450 3431 
Q 2728 3278 2906 2969 
L 2906 3500 
L 3481 3500 
L 3481 434 
z
" transform="scale(0.015625)"/>
       <path id="DejaVuSans-20" transform="scale(0.015625)"/>
       <path id="DejaVuSans-6d" d="M 3328 2828 
Q 3544 3216 3844 3400 
Q 4144 3584 4550 3584 
Q 5097 3584 5394 3201 
Q 5691 2819 5691 2113 
L 5691 0 
L 5113 0 
L 5113 2094 
Q 5113 2597 4934 2840 
Q 4756 3084 4391 3084 
Q 3944 3084 3684 2787 
Q 3425 2491 3425 1978 
L 3425 0 
L 2847 0 
L 2847 2094 
Q 2847 2600 2669 2842 
Q 2491 3084 2119 3084 
Q 1678 3084 1418 2786 
Q 1159 2488 1159 1978 
L 1159 0 
L 581 0 
L 581 3500 
L 1159 3500 
L 1159 2956 
Q 1356 3278 1631 3431 
Q 1906 3584 2284 3584 
Q 2666 3584 2933 3390 
Q 3200 3197 3328 2828 
z
" transform="scale(0.015625)"/>
       <path id="DejaVuSans-65" d="M 3597 1894 
L 3597 1613 
L 953 1613 
Q 991 1019 1311 708 
Q 1631 397 2203 397 
Q 2534 397 2845 478 
Q 3156 559 3463 722 
L 3463 178 
Q 3153 47 2828 -22 
Q 2503 -91 2169 -91 
Q 1331 -91 842 396 
Q 353 884 353 1716 
Q 353 2575 817 3079 
Q 1281 3584 2069 3584 
Q 2775 3584 3186 3129 
Q 3597 2675 3597 1894 
z
M 3022 2063 
Q 3016 2534 2758 2815 
Q 2500 3097 2075 3097 
Q 1594 3097 1305 2825 
Q 1016 2553 972 2059 
L 3022 2063 
z
" transform="scale(0.015625)"/>
      </defs>
      <use xlink:href="#DejaVuSans-68"/>
      <use xlink:href="#DejaVuSans-69" x="63.378906"/>
      <use xlink:href="#DejaVuSans-74" x="91.162109"/>
      <use xlink:href="#DejaVuSans-74" x="130.371094"/>
      <use xlink:href="#DejaVuSans-69" x="169.580078"/>
      <use xlink:href="#DejaVuSans-6e" x="197.363281"/>
      <use xlink:href="#DejaVuSans-67" x="260.742188"/>
      <use xlink:href="#DejaVuSans-20" x="324.21875"/>
      <use xlink:href="#DejaVuSans-74" x="356.005859"/>
      <use xlink:href="#DejaVuSans-69" x="395.214844"/>
      <use xlink:href="#DejaVuSans-6d" x="422.998047"/>
      <use xlink:href="#DejaVuSans-65" x="520.410156"/>
     </g>
    </g>
   </g>
   <g id="matplotlib.axis_2">
    <g id="ytick_1">
     <g id="line2d_10">
      <defs>
       <path id="ma95d4877a8" d="M 0 0 
L -12 0 
" style="stroke: #262626; stroke-width: 2.5"/>
      </defs>
      <g>
       <use xlink:href="#ma95d4877a8" x="98.911875" y="393.558281" style="fill: #262626; stroke: #262626; stroke-width: 2.5"/>
      </g>
     </g>
     <g id="text_11">
      <!-- 0.00 -->
      <g style="fill: #262626" transform="translate(34.4275 401.916562) scale(0.22 -0.22)">
       <defs>
        <path id="DejaVuSans-2e" d="M 684 794 
L 1344 794 
L 1344 0 
L 684 0 
L 684 794 
z
" transform="scale(0.015625)"/>
       </defs>
       <use xlink:href="#DejaVuSans-30"/>
       <use xlink:href="#DejaVuSans-2e" x="63.623047"/>
       <use xlink:href="#DejaVuSans-30" x="95.410156"/>
       <use xlink:href="#DejaVuSans-30" x="159.033203"/>
      </g>
     </g>
    </g>
    <g id="ytick_2">
     <g id="line2d_11">
      <g>
       <use xlink:href="#ma95d4877a8" x="98.911875" y="317.958281" style="fill: #262626; stroke: #262626; stroke-width: 2.5"/>
      </g>
     </g>
     <g id="text_12">
      <!-- 0.02 -->
      <g style="fill: #262626" transform="translate(34.4275 326.316562) scale(0.22 -0.22)">
       <use xlink:href="#DejaVuSans-30"/>
       <use xlink:href="#DejaVuSans-2e" x="63.623047"/>
       <use xlink:href="#DejaVuSans-30" x="95.410156"/>
       <use xlink:href="#DejaVuSans-32" x="159.033203"/>
      </g>
     </g>
    </g>
    <g id="ytick_3">
     <g id="line2d_12">
      <g>
       <use xlink:href="#ma95d4877a8" x="98.911875" y="242.358281" style="fill: #262626; stroke: #262626; stroke-width: 2.5"/>
      </g>
     </g>
     <g id="text_13">
      <!-- 0.04 -->
      <g style="fill: #262626" transform="translate(34.4275 250.716562) scale(0.22 -0.22)">
       <defs>
        <path id="DejaVuSans-34" d="M 2419 4116 
L 825 1625 
L 2419 1625 
L 2419 4116 
z
M 2253 4666 
L 3047 4666 
L 3047 1625 
L 3713 1625 
L 3713 1100 
L 3047 1100 
L 3047 0 
L 2419 0 
L 2419 1100 
L 313 1100 
L 313 1709 
L 2253 4666 
z
" transform="scale(0.015625)"/>
       </defs>
       <use xlink:href="#DejaVuSans-30"/>
       <use xlink:href="#DejaVuSans-2e" x="63.623047"/>
       <use xlink:href="#DejaVuSans-30" x="95.410156"/>
       <use xlink:href="#DejaVuSans-34" x="159.033203"/>
      </g>
     </g>
    </g>
    <g id="ytick_4">
     <g id="line2d_13">
      <g>
       <use xlink:href="#ma95d4877a8" x="98.911875" y="166.758281" style="fill: #262626; stroke: #262626; stroke-width: 2.5"/>
      </g>
     </g>
     <g id="text_14">
      <!-- 0.06 -->
      <g style="fill: #262626" transform="translate(34.4275 175.116562) scale(0.22 -0.22)">
       <defs>
        <path id="DejaVuSans-36" d="M 2113 2584 
Q 1688 2584 1439 2293 
Q 1191 2003 1191 1497 
Q 1191 994 1439 701 
Q 1688 409 2113 409 
Q 2538 409 2786 701 
Q 3034 994 3034 1497 
Q 3034 2003 2786 2293 
Q 2538 2584 2113 2584 
z
M 3366 4563 
L 3366 3988 
Q 3128 4100 2886 4159 
Q 2644 4219 2406 4219 
Q 1781 4219 1451 3797 
Q 1122 3375 1075 2522 
Q 1259 2794 1537 2939 
Q 1816 3084 2150 3084 
Q 2853 3084 3261 2657 
Q 3669 2231 3669 1497 
Q 3669 778 3244 343 
Q 2819 -91 2113 -91 
Q 1303 -91 875 529 
Q 447 1150 447 2328 
Q 447 3434 972 4092 
Q 1497 4750 2381 4750 
Q 2619 4750 2861 4703 
Q 3103 4656 3366 4563 
z
" transform="scale(0.015625)"/>
       </defs>
       <use xlink:href="#DejaVuSans-30"/>
       <use xlink:href="#DejaVuSans-2e" x="63.623047"/>
       <use xlink:href="#DejaVuSans-30" x="95.410156"/>
       <use xlink:href="#DejaVuSans-36" x="159.033203"/>
      </g>
     </g>
    </g>
    <g id="ytick_5">
     <g id="line2d_14">
      <g>
       <use xlink:href="#ma95d4877a8" x="98.911875" y="91.158281" style="fill: #262626; stroke: #262626; stroke-width: 2.5"/>
      </g>
     </g>
     <g id="text_15">
      <!-- 0.08 -->
      <g style="fill: #262626" transform="translate(34.4275 99.516562) scale(0.22 -0.22)">
       <defs>
        <path id="DejaVuSans-38" d="M 2034 2216 
Q 1584 2216 1326 1975 
Q 1069 1734 1069 1313 
Q 1069 891 1326 650 
Q 1584 409 2034 409 
Q 2484 409 2743 651 
Q 3003 894 3003 1313 
Q 3003 1734 2745 1975 
Q 2488 2216 2034 2216 
z
M 1403 2484 
Q 997 2584 770 2862 
Q 544 3141 544 3541 
Q 544 4100 942 4425 
Q 1341 4750 2034 4750 
Q 2731 4750 3128 4425 
Q 3525 4100 3525 3541 
Q 3525 3141 3298 2862 
Q 3072 2584 2669 2484 
Q 3125 2378 3379 2068 
Q 3634 1759 3634 1313 
Q 3634 634 3220 271 
Q 2806 -91 2034 -91 
Q 1263 -91 848 271 
Q 434 634 434 1313 
Q 434 1759 690 2068 
Q 947 2378 1403 2484 
z
M 1172 3481 
Q 1172 3119 1398 2916 
Q 1625 2713 2034 2713 
Q 2441 2713 2670 2916 
Q 2900 3119 2900 3481 
Q 2900 3844 2670 4047 
Q 2441 4250 2034 4250 
Q 1625 4250 1398 4047 
Q 1172 3844 1172 3481 
z
" transform="scale(0.015625)"/>
       </defs>
       <use xlink:href="#DejaVuSans-30"/>
       <use xlink:href="#DejaVuSans-2e" x="63.623047"/>
       <use xlink:href="#DejaVuSans-30" x="95.410156"/>
       <use xlink:href="#DejaVuSans-38" x="159.033203"/>
      </g>
     </g>
    </g>
    <g id="ytick_6">
     <g id="line2d_15">
      <g>
       <use xlink:href="#ma95d4877a8" x="98.911875" y="15.558281" style="fill: #262626; stroke: #262626; stroke-width: 2.5"/>
      </g>
     </g>
     <g id="text_16">
      <!-- 0.10 -->
      <g style="fill: #262626" transform="translate(34.4275 23.916562) scale(0.22 -0.22)">
       <use xlink:href="#DejaVuSans-30"/>
       <use xlink:href="#DejaVuSans-2e" x="63.623047"/>
       <use xlink:href="#DejaVuSans-31" x="95.410156"/>
       <use xlink:href="#DejaVuSans-30" x="159.033203"/>
      </g>
     </g>
    </g>
    <g id="text_17">
     <!-- ECDF -->
     <g style="fill: #262626" transform="translate(25.43625 255.562031) rotate(-90) scale(0.24 -0.24)">
      <defs>
       <path id="DejaVuSans-45" d="M 628 4666 
L 3578 4666 
L 3578 4134 
L 1259 4134 
L 1259 2753 
L 3481 2753 
L 3481 2222 
L 1259 2222 
L 1259 531 
L 3634 531 
L 3634 0 
L 628 0 
L 628 4666 
z
" transform="scale(0.015625)"/>
       <path id="DejaVuSans-43" d="M 4122 4306 
L 4122 3641 
Q 3803 3938 3442 4084 
Q 3081 4231 2675 4231 
Q 1875 4231 1450 3742 
Q 1025 3253 1025 2328 
Q 1025 1406 1450 917 
Q 1875 428 2675 428 
Q 3081 428 3442 575 
Q 3803 722 4122 1019 
L 4122 359 
Q 3791 134 3420 21 
Q 3050 -91 2638 -91 
Q 1578 -91 968 557 
Q 359 1206 359 2328 
Q 359 3453 968 4101 
Q 1578 4750 2638 4750 
Q 3056 4750 3426 4639 
Q 3797 4528 4122 4306 
z
" transform="scale(0.015625)"/>
       <path id="DejaVuSans-44" d="M 1259 4147 
L 1259 519 
L 2022 519 
Q 2988 519 3436 956 
Q 3884 1394 3884 2338 
Q 3884 3275 3436 3711 
Q 2988 4147 2022 4147 
L 1259 4147 
z
M 628 4666 
L 1925 4666 
Q 3281 4666 3915 4102 
Q 4550 3538 4550 2338 
Q 4550 1131 3912 565 
Q 3275 0 1925 0 
L 628 0 
L 628 4666 
z
" transform="scale(0.015625)"/>
       <path id="DejaVuSans-46" d="M 628 4666 
L 3309 4666 
L 3309 4134 
L 1259 4134 
L 1259 2759 
L 3109 2759 
L 3109 2228 
L 1259 2228 
L 1259 0 
L 628 0 
L 628 4666 
z
" transform="scale(0.015625)"/>
      </defs>
      <use xlink:href="#DejaVuSans-45"/>
      <use xlink:href="#DejaVuSans-43" x="63.183594"/>
      <use xlink:href="#DejaVuSans-44" x="133.007812"/>
      <use xlink:href="#DejaVuSans-46" x="210.009766"/>
     </g>
    </g>
   </g>
   <g id="line2d_16">
    <path d="M 136.111875 393.558281 
L 136.111875 382.376504 
L 137.971875 382.264008 
L 137.971875 380.753583 
L 139.831875 380.641086 
L 139.831875 379.408593 
L 141.691875 379.296097 
L 141.691875 378.363041 
L 143.551875 378.250545 
L 143.551875 377.549099 
L 145.411875 377.436603 
L 145.411875 376.889012 
L 147.271875 376.776516 
L 147.271875 376.333149 
L 149.131875 376.220653 
L 149.131875 375.826917 
L 150.991875 375.714421 
L 150.991875 375.4216 
L 152.851875 375.309104 
L 152.851875 374.979888 
L 154.711875 374.867392 
L 154.711875 374.667215 
L 156.571875 374.554719 
L 156.571875 374.362814 
L 158.431875 374.250318 
L 158.431875 374.053449 
L 160.291875 373.940953 
L 160.291875 373.813568 
L 162.151875 373.701072 
L 162.151875 373.562106 
L 164.011875 373.44961 
L 164.011875 373.398325 
L 165.871875 373.285829 
L 165.871875 373.219655 
L 167.731875 373.107159 
L 167.731875 373.044294 
L 169.591875 372.931798 
L 169.591875 372.880513 
L 171.451875 372.768017 
L 171.451875 372.756436 
L 173.311875 372.64394 
L 173.311875 372.638977 
L 177.031875 372.524827 
L 177.031875 372.445418 
L 180.751875 372.331267 
L 180.751875 372.275019 
L 184.471875 372.160869 
L 184.471875 372.114547 
L 188.191875 372.000396 
L 188.191875 371.995433 
L 190.051875 371.882937 
L 190.051875 371.489201 
L 191.911875 371.376705 
L 191.911875 371.019365 
L 193.771875 370.906868 
L 193.771875 370.541256 
L 195.631875 370.42876 
L 195.631875 370.043296 
L 197.491875 369.9308 
L 197.491875 369.614818 
L 199.351875 369.502322 
L 199.351875 369.116858 
L 201.211875 369.004362 
L 201.211875 368.683417 
L 203.071875 368.570921 
L 203.071875 368.193728 
L 204.931875 368.081232 
L 204.931875 367.761942 
L 206.791875 367.649446 
L 206.791875 367.345045 
L 208.651875 367.232549 
L 208.651875 366.926493 
L 210.511875 366.813997 
L 210.511875 366.493052 
L 212.371875 366.380556 
L 212.371875 366.114205 
L 214.231875 366.001709 
L 214.231875 365.722124 
L 216.091875 365.609627 
L 216.091875 365.2953 
L 217.951875 365.182804 
L 217.951875 364.913145 
L 219.811875 364.800648 
L 219.811875 364.535952 
L 221.671875 364.423456 
L 221.671875 364.138907 
L 223.531875 364.026411 
L 223.531875 363.803073 
L 225.391875 363.690577 
L 225.391875 363.42588 
L 227.251875 363.313384 
L 227.251875 363.071849 
L 229.111875 362.959353 
L 229.111875 362.739324 
L 230.971875 362.626828 
L 230.971875 362.343933 
L 232.831875 362.231437 
L 232.831875 362.021334 
L 234.691875 361.908838 
L 234.691875 361.72355 
L 236.551875 361.611054 
L 236.551875 361.410877 
L 238.411875 361.298381 
L 238.411875 361.091587 
L 240.271875 360.979091 
L 240.271875 360.768988 
L 242.131875 360.656492 
L 242.131875 360.11221 
L 243.991875 359.999714 
L 243.991875 359.56131 
L 245.851875 359.448814 
L 245.851875 359.028608 
L 247.711875 358.916112 
L 247.711875 358.514104 
L 249.571875 358.401608 
L 249.571875 358.01118 
L 251.431875 357.898684 
L 251.431875 357.57774 
L 253.291875 357.465244 
L 253.291875 357.109557 
L 255.151875 356.997061 
L 255.151875 356.626486 
L 257.011875 356.51399 
L 257.011875 356.239367 
L 258.871875 356.126871 
L 258.871875 355.812544 
L 260.731875 355.700048 
L 260.731875 355.390684 
L 262.591875 355.278188 
L 262.591875 354.955589 
L 264.451875 354.843093 
L 264.451875 354.573433 
L 266.311875 354.460937 
L 266.311875 354.183006 
L 268.171875 354.070509 
L 268.171875 353.799195 
L 270.031875 353.686699 
L 270.031875 353.433583 
L 271.891875 353.321087 
L 271.891875 353.07128 
L 273.751875 352.958784 
L 273.751875 352.689124 
L 275.611875 352.576628 
L 275.611875 352.335092 
L 277.471875 352.222596 
L 277.471875 352.010839 
L 279.331875 351.898343 
L 279.331875 351.671696 
L 281.191875 351.5592 
L 281.191875 351.322628 
L 283.051875 351.210132 
L 283.051875 351.02319 
L 284.911875 350.910694 
L 284.911875 350.693973 
L 286.771875 350.581477 
L 286.771875 350.391227 
L 288.631875 350.27873 
L 288.631875 350.091788 
L 290.491875 349.979292 
L 290.491875 349.794005 
L 292.351875 349.681509 
L 292.351875 349.46148 
L 294.211875 349.348984 
L 294.211875 349.009841 
L 296.071875 348.897345 
L 296.071875 348.578055 
L 297.931875 348.465559 
L 297.931875 348.108218 
L 299.791875 347.995722 
L 299.791875 347.684704 
L 301.651875 347.572208 
L 301.651875 347.297585 
L 303.511875 347.185089 
L 303.511875 346.922047 
L 305.371875 346.80955 
L 305.371875 346.561397 
L 307.231875 346.448901 
L 307.231875 346.199094 
L 309.091875 346.086598 
L 309.091875 345.833482 
L 310.951875 345.720986 
L 310.951875 345.4414 
L 312.811875 345.328904 
L 312.811875 345.074133 
L 314.671875 344.961637 
L 314.671875 344.680397 
L 316.531875 344.567901 
L 316.531875 344.324711 
L 318.391875 344.212215 
L 318.391875 343.960753 
L 320.251875 343.848257 
L 320.251875 343.621611 
L 322.111875 343.509115 
L 322.111875 343.274196 
L 323.971875 343.1617 
L 323.971875 342.91851 
L 325.831875 342.806014 
L 325.831875 342.577713 
L 327.691875 342.465217 
L 327.691875 342.246843 
L 329.551875 342.134347 
L 329.551875 341.899428 
L 331.411875 341.786932 
L 331.411875 341.583447 
L 333.271875 341.470951 
L 333.271875 341.308824 
L 335.131875 341.196328 
L 335.131875 340.996151 
L 336.991875 340.883655 
L 336.991875 340.666935 
L 338.851875 340.554439 
L 338.851875 340.382386 
L 340.711875 340.26989 
L 340.711875 340.074676 
L 342.571875 339.96218 
L 342.571875 339.762003 
L 344.431875 339.649507 
L 344.431875 339.465874 
L 346.291875 339.353378 
L 346.291875 339.040705 
L 348.151875 338.928209 
L 348.151875 338.597338 
L 350.011875 338.484842 
L 350.011875 338.213528 
L 351.871875 338.101032 
L 351.871875 337.801594 
L 353.731875 337.689098 
L 353.731875 337.411166 
L 355.591875 337.29867 
L 355.591875 337.027356 
L 357.451875 336.91486 
L 357.451875 336.603842 
L 359.311875 336.491346 
L 359.311875 336.268008 
L 361.171875 336.155512 
L 361.171875 335.905704 
L 363.031875 335.793208 
L 363.031875 335.559944 
L 364.891875 335.447448 
L 364.891875 335.167862 
L 366.751875 335.055366 
L 366.751875 334.818794 
L 368.611875 334.706298 
L 368.611875 334.463108 
L 370.471875 334.350612 
L 370.471875 334.100804 
L 372.331875 333.988308 
L 372.331875 333.781514 
L 374.191875 333.669018 
L 374.191875 333.452298 
L 376.051875 333.339802 
L 376.051875 333.113155 
L 377.911875 333.000659 
L 377.911875 332.737617 
L 379.771875 332.625121 
L 379.771875 332.413363 
L 381.631875 332.300867 
L 381.631875 332.07753 
L 383.491875 331.965033 
L 383.491875 331.778091 
L 385.351875 331.665595 
L 385.351875 331.429023 
L 387.211875 331.316527 
L 387.211875 331.074991 
L 389.071875 330.962495 
L 389.071875 330.78217 
L 390.931875 330.669674 
L 390.931875 330.449645 
L 392.791875 330.337149 
L 392.791875 330.102231 
L 394.651875 329.989735 
L 394.651875 329.802793 
L 396.511875 329.690297 
L 396.511875 329.491774 
L 398.371875 329.379278 
L 398.371875 329.036827 
L 400.231875 328.924331 
L 400.231875 328.576917 
L 402.091875 328.464421 
L 402.091875 328.151748 
L 403.951875 328.039252 
L 403.951875 327.753049 
L 405.811875 327.640553 
L 405.811875 327.357658 
L 407.671875 327.245162 
L 407.671875 326.940761 
L 409.531875 326.828265 
L 409.531875 326.575149 
L 411.391875 326.462653 
L 411.391875 326.168178 
L 413.251875 326.055682 
L 413.251875 325.810837 
L 415.111875 325.698341 
L 415.111875 325.408829 
L 416.971875 325.296333 
L 416.971875 325.061415 
L 418.831875 324.948919 
L 418.831875 324.747088 
L 420.691875 324.634592 
L 420.691875 324.39471 
L 422.551875 324.282214 
L 422.551875 324.045642 
L 424.411875 323.933146 
L 424.411875 323.661832 
L 426.271875 323.549335 
L 426.271875 323.335924 
L 428.131875 323.223428 
L 428.131875 323.01167 
L 429.991875 322.899174 
L 429.991875 322.669219 
L 431.851875 322.556723 
L 431.851875 322.343312 
L 433.711875 322.230815 
L 433.711875 322.048837 
L 435.571875 321.93634 
L 435.571875 321.737818 
L 437.431875 321.625322 
L 437.431875 321.459887 
L 439.291875 321.347391 
L 439.291875 321.124053 
L 441.151875 321.011557 
L 441.151875 320.832886 
L 443.011875 320.72039 
L 443.011875 320.556609 
L 444.871875 320.444113 
L 444.871875 320.267097 
L 446.731875 320.154601 
L 446.731875 319.924646 
L 448.591875 319.81215 
L 448.591875 319.640097 
L 450.451875 319.527601 
L 450.451875 319.200039 
L 452.311875 319.087543 
L 452.311875 318.788105 
L 454.171875 318.675609 
L 454.171875 318.351356 
L 456.031875 318.23886 
L 456.031875 317.967546 
L 457.891875 317.85505 
L 457.891875 317.578772 
L 459.751875 317.466276 
L 459.751875 317.209852 
L 461.611875 317.097356 
L 461.611875 316.865746 
L 463.471875 316.75325 
L 463.471875 316.523295 
L 465.331875 316.410799 
L 465.331875 316.197387 
L 467.191875 316.084891 
L 467.191875 315.89464 
L 469.051875 315.782144 
L 469.051875 315.538954 
L 470.911875 315.426458 
L 470.911875 315.209738 
L 472.771875 315.097242 
L 472.771875 314.87225 
L 474.631875 314.759754 
L 474.631875 314.559577 
L 476.491875 314.447081 
L 476.491875 314.222089 
L 478.351875 314.109592 
L 478.351875 313.92265 
L 480.211875 313.810154 
L 480.211875 313.611632 
L 482.071875 313.499136 
L 482.071875 313.298959 
L 483.931875 313.186463 
L 483.931875 312.989595 
L 485.791875 312.877099 
L 485.791875 312.665342 
L 487.651875 312.552846 
L 487.651875 312.319582 
L 489.511875 312.207086 
L 489.511875 311.998637 
L 491.371875 311.886141 
L 491.371875 311.68431 
L 493.231875 311.571814 
L 493.231875 311.369983 
L 495.091875 311.257486 
L 495.091875 311.098668 
L 496.951875 310.986172 
L 496.951875 310.789304 
L 498.811875 310.676808 
L 498.811875 310.481595 
L 500.671875 310.369098 
L 500.671875 310.149069 
L 502.531875 310.036573 
L 502.531875 309.780148 
L 504.391875 309.667652 
L 504.391875 309.447623 
L 506.251875 309.335127 
L 506.251875 309.125024 
L 508.111875 309.012528 
L 508.111875 308.769338 
L 509.971875 308.656842 
L 509.971875 308.425233 
L 511.831875 308.312737 
L 511.831875 308.079473 
L 513.691875 307.966977 
L 513.691875 307.725441 
L 515.551875 307.612945 
L 515.551875 307.386298 
L 517.411875 307.273802 
L 517.411875 307.080243 
L 519.271875 306.967747 
L 519.271875 306.754335 
L 521.131875 306.641839 
L 521.131875 306.454897 
L 522.991875 306.342401 
L 522.991875 306.160422 
L 524.851875 306.047926 
L 524.851875 305.849404 
L 526.711875 305.736908 
L 526.711875 305.535077 
L 528.571875 305.42258 
L 528.571875 305.227367 
L 530.431875 305.114871 
L 530.431875 304.931237 
L 532.291875 304.818741 
L 532.291875 304.620219 
L 534.151875 304.507723 
L 534.151875 304.342287 
L 536.011875 304.229791 
L 536.011875 304.049467 
L 537.871875 303.936971 
L 537.871875 303.743411 
L 539.731875 303.630915 
L 539.731875 303.417504 
L 541.591875 303.305008 
L 541.591875 303.141227 
L 543.451875 303.02873 
L 543.451875 302.841788 
L 545.311875 302.729292 
L 545.311875 302.555585 
L 547.171875 302.443089 
L 547.171875 302.267728 
L 549.031875 302.155232 
L 549.031875 301.994759 
L 550.891875 301.882263 
L 550.891875 301.718482 
L 552.751875 301.605986 
L 552.751875 301.457094 
L 554.611875 301.344598 
L 554.611875 301.116297 
L 556.471875 301.003801 
L 556.471875 300.825131 
L 558.331875 300.712635 
L 558.331875 300.538928 
L 560.191875 300.426432 
L 560.191875 300.216329 
L 562.051875 300.103833 
L 562.051875 299.908619 
L 563.911875 299.796123 
L 563.911875 299.592638 
L 565.771875 299.480141 
L 565.771875 299.299817 
L 567.631875 299.187321 
L 567.631875 299.018577 
L 569.491875 298.906081 
L 569.491875 298.712521 
L 571.351875 298.600025 
L 571.351875 298.431281 
L 573.211875 298.318785 
L 573.211875 298.138461 
L 575.071875 298.025964 
L 575.071875 297.855566 
L 576.931875 297.74307 
L 576.931875 297.529658 
L 578.791875 297.417162 
L 578.791875 297.233529 
L 580.651875 297.121033 
L 580.651875 296.955598 
L 582.511875 296.843101 
L 582.511875 296.67932 
L 584.371875 296.566824 
L 584.371875 296.431167 
L 586.231875 296.318671 
L 586.231875 296.149927 
L 588.091875 296.037431 
L 588.091875 295.858761 
L 589.951875 295.746265 
L 589.951875 295.613917 
L 591.811875 295.50142 
L 591.811875 295.337639 
L 593.671875 295.225143 
L 593.671875 295.077906 
L 595.531875 294.96541 
L 595.531875 294.844642 
L 597.391875 294.732146 
L 597.391875 294.603106 
L 599.251875 294.49061 
L 599.251875 294.321866 
L 601.111875 294.20937 
L 601.111875 294.053861 
L 602.971875 293.941365 
L 602.971875 293.830523 
L 604.831875 293.718027 
L 604.831875 293.577407 
L 606.691875 293.464911 
L 606.691875 293.228338 
L 608.551875 293.115842 
L 608.551875 292.857763 
L 610.411875 292.745267 
L 610.411875 292.490497 
L 612.271875 292.378 
L 612.271875 292.139773 
L 614.131875 292.027277 
L 614.131875 291.744383 
L 615.991875 291.631887 
L 615.991875 291.40524 
L 617.851875 291.292744 
L 617.851875 291.092568 
L 619.711875 290.980071 
L 619.711875 290.765005 
L 621.571875 290.652509 
L 621.571875 290.402702 
L 623.431875 290.290206 
L 623.431875 290.085066 
L 625.291875 289.97257 
L 625.291875 289.745923 
L 627.151875 289.633427 
L 627.151875 289.403472 
L 629.011875 289.290976 
L 629.011875 289.094108 
L 630.871875 288.981612 
L 630.871875 288.736768 
L 632.731875 288.624272 
L 632.731875 288.405897 
L 634.591875 288.293401 
L 634.591875 288.068409 
L 636.451875 287.955913 
L 636.451875 287.740847 
L 638.311875 287.628351 
L 638.311875 287.439754 
L 640.171875 287.327258 
L 640.171875 287.105575 
L 642.031875 286.993079 
L 642.031875 286.806137 
L 643.891875 286.693641 
L 643.891875 286.524897 
L 645.751875 286.412401 
L 645.751875 286.212224 
L 647.611875 286.099728 
L 647.611875 285.878044 
L 649.471875 285.765548 
L 649.471875 285.603421 
L 651.331875 285.490925 
L 651.331875 285.292403 
L 653.191875 285.179907 
L 653.191875 284.95326 
L 655.051875 284.840764 
L 655.051875 284.655477 
L 656.911875 284.542981 
L 656.911875 284.347767 
L 658.771875 284.235271 
L 658.771875 283.987118 
L 660.631875 283.874622 
L 660.631875 283.621506 
L 662.491875 283.50901 
L 662.491875 283.252585 
L 664.351875 283.140089 
L 664.351875 282.915096 
L 666.211875 282.8026 
L 666.211875 282.544521 
L 668.071875 282.432025 
L 668.071875 282.195453 
L 669.931875 282.082957 
L 669.931875 281.859619 
L 671.791875 281.747123 
L 671.791875 281.517167 
L 673.651875 281.404671 
L 673.651875 281.179679 
L 675.511875 281.067183 
L 675.511875 280.802487 
L 677.371875 280.689991 
L 677.371875 280.455072 
L 679.231875 280.342576 
L 679.231875 280.125856 
L 681.091875 280.01336 
L 681.091875 279.790022 
L 682.951875 279.677526 
L 682.951875 279.440953 
L 684.811875 279.328457 
L 684.811875 279.120009 
L 686.671875 279.007513 
L 686.671875 278.80899 
L 688.531875 278.696494 
L 688.531875 278.507898 
L 690.391875 278.395402 
L 690.391875 278.168755 
L 692.251875 278.056259 
L 692.251875 277.882552 
L 694.111875 277.770056 
L 694.111875 277.530175 
L 695.971875 277.417679 
L 695.971875 277.219156 
L 697.831875 277.10666 
L 697.831875 276.868433 
L 699.691875 276.755937 
L 699.691875 276.507784 
L 701.551875 276.395288 
L 701.551875 276.183531 
L 703.411875 276.071035 
L 703.411875 275.869203 
L 705.271875 275.756707 
L 705.271875 275.579692 
L 707.131875 275.467196 
L 707.131875 275.278599 
L 708.991875 275.166103 
L 708.991875 274.957655 
L 710.851875 274.845158 
L 710.851875 274.616858 
L 712.711875 274.504362 
L 712.711875 274.277715 
L 714.571875 274.165219 
L 714.571875 273.925338 
L 716.431875 273.812842 
L 716.431875 273.607702 
L 718.291875 273.495206 
L 718.291875 273.240435 
L 720.151875 273.127939 
L 720.151875 272.932725 
L 722.011875 272.820229 
L 722.011875 272.591929 
L 723.871875 272.479432 
L 723.871875 272.246169 
L 725.731875 272.133673 
L 725.731875 271.913643 
L 727.591875 271.801147 
L 727.591875 271.602625 
L 729.451875 271.490129 
L 729.451875 271.31973 
L 731.311875 271.207234 
L 731.311875 271.03849 
L 733.171875 270.925994 
L 733.171875 270.732435 
L 735.031875 270.619939 
L 735.031875 270.398255 
L 736.891875 270.285759 
L 736.891875 270.098817 
L 738.751875 269.986321 
L 738.751875 269.805997 
L 740.611875 269.693501 
L 740.611875 269.466854 
L 742.471875 269.354358 
L 742.471875 269.177342 
L 744.331875 269.064846 
L 744.331875 268.882867 
L 746.191875 268.770371 
L 746.191875 268.571849 
L 748.051875 268.459353 
L 748.051875 268.277374 
L 749.911875 268.164878 
L 749.911875 267.997788 
L 751.771875 267.885292 
L 751.771875 267.67188 
L 753.631875 267.559384 
L 753.631875 267.36417 
L 755.491875 267.251674 
L 755.491875 267.091202 
L 757.351875 266.978706 
L 757.351875 266.814925 
L 759.211875 266.702429 
L 759.211875 266.489017 
L 761.071875 266.376521 
L 761.071875 266.21274 
L 762.931875 266.100244 
L 762.931875 265.825621 
L 764.791875 265.713125 
L 764.791875 265.448429 
L 766.651875 265.335933 
L 766.651875 265.086125 
L 768.511875 264.973629 
L 768.511875 264.74202 
L 770.371875 264.629524 
L 770.371875 264.449199 
L 772.231875 264.336703 
L 772.231875 264.106748 
L 774.091875 263.994252 
L 774.091875 263.724592 
L 775.951875 263.612096 
L 775.951875 263.39703 
L 777.811875 263.284534 
L 777.811875 263.087666 
L 779.671875 262.97517 
L 779.671875 262.715436 
L 781.531875 262.60294 
L 781.531875 262.328317 
L 783.391875 262.215821 
L 783.391875 261.985866 
L 785.251875 261.87337 
L 785.251875 261.664921 
L 787.111875 261.552425 
L 787.111875 261.277803 
L 788.971875 261.165307 
L 788.971875 260.935351 
L 790.831875 260.822855 
L 790.831875 260.645839 
L 792.691875 260.533343 
L 792.691875 260.328204 
L 794.551875 260.215707 
L 794.551875 260.005605 
L 796.411875 259.893108 
L 796.411875 259.691277 
L 798.271875 259.578781 
L 798.271875 259.36537 
L 800.131875 259.252874 
L 800.131875 259.067586 
L 801.991875 258.95509 
L 801.991875 258.740024 
L 803.851875 258.627528 
L 803.851875 258.455475 
L 805.711875 258.342979 
L 805.711875 258.13453 
L 807.571875 258.022034 
L 807.571875 257.797042 
L 809.431875 257.684546 
L 809.431875 257.527382 
L 811.291875 257.414886 
L 811.291875 257.201475 
L 813.151875 257.088979 
L 813.151875 256.91858 
L 815.011875 256.806084 
L 815.011875 256.56124 
L 816.871875 256.448744 
L 816.871875 256.207208 
L 818.731875 256.094712 
L 818.731875 255.841596 
L 820.591875 255.7291 
L 820.591875 255.492527 
L 822.451875 255.380031 
L 822.451875 255.193089 
L 824.311875 255.080593 
L 824.311875 254.855601 
L 826.171875 254.743105 
L 826.171875 254.557817 
L 828.031875 254.445321 
L 828.031875 254.253416 
L 829.891875 254.14092 
L 829.891875 253.929163 
L 831.751875 253.816667 
L 831.751875 253.61649 
L 833.611875 253.503994 
L 833.611875 253.315398 
L 835.471875 253.202902 
L 835.471875 252.997762 
L 837.331875 252.885266 
L 837.331875 252.678471 
L 839.191875 252.565975 
L 839.191875 252.402194 
L 841.051875 252.289698 
L 841.051875 252.087867 
L 842.911875 251.975371 
L 842.911875 251.771885 
L 844.771875 251.659389 
L 844.771875 251.449286 
L 846.631875 251.33679 
L 846.631875 251.134959 
L 848.491875 251.022463 
L 848.491875 250.833867 
L 850.351875 250.721371 
L 850.351875 250.526157 
L 852.211875 250.413661 
L 852.211875 250.206867 
L 854.071875 250.094371 
L 854.071875 249.889231 
L 855.931875 249.776735 
L 855.931875 249.591447 
L 857.791875 249.478951 
L 857.791875 249.2887 
L 859.651875 249.176204 
L 859.651875 249.012423 
L 861.511875 248.899927 
L 861.511875 248.678244 
L 863.371875 248.565748 
L 863.371875 248.388732 
L 865.231875 248.276236 
L 865.231875 248.090948 
L 867.091875 247.978452 
L 867.091875 247.713755 
L 868.951875 247.601259 
L 868.951875 247.334908 
L 870.811875 247.222412 
L 870.811875 246.970951 
L 872.671875 246.858455 
L 872.671875 246.636771 
L 874.531875 246.524275 
L 874.531875 246.314172 
L 876.391875 246.201676 
L 876.391875 245.917127 
L 878.251875 245.804631 
L 878.251875 245.516774 
L 880.111875 245.404278 
L 880.111875 245.146198 
L 881.971875 245.144544 
L 881.971875 245.144544 
" clip-path="url(#pecce4c7874)" style="fill: none; stroke: #0173b2; stroke-width: 3; stroke-linecap: round"/>
   </g>
   <g id="line2d_17">
    <path d="M 136.111875 393.558281 
L 136.111875 382.376509 
L 139.831875 382.265338 
L 139.831875 376.738333 
L 143.551875 376.627163 
L 143.551875 372.455776 
L 147.271875 372.344605 
L 147.271875 368.546552 
L 150.991875 368.435382 
L 150.991875 365.048826 
L 154.711875 364.937655 
L 154.711875 361.856404 
L 158.431875 361.745234 
L 158.431875 358.841524 
L 162.151875 358.730353 
L 162.151875 355.829961 
L 165.871875 355.718791 
L 165.871875 353.060652 
L 169.591875 352.949481 
L 169.591875 350.389238 
L 173.311875 350.278068 
L 173.311875 347.847248 
L 177.031875 347.736077 
L 177.031875 345.27539 
L 180.751875 345.164219 
L 180.751875 342.839592 
L 184.471875 342.728422 
L 184.471875 340.382224 
L 188.191875 340.271053 
L 188.191875 337.996204 
L 191.911875 337.885033 
L 191.911875 335.635073 
L 195.631875 335.523902 
L 195.631875 333.370179 
L 199.351875 333.259008 
L 199.351875 331.068781 
L 203.071875 330.957611 
L 203.071875 328.847028 
L 206.791875 328.735857 
L 206.791875 326.530697 
L 210.511875 326.419526 
L 210.511875 324.34047 
L 214.231875 324.229299 
L 214.231875 322.073917 
L 217.951875 321.962746 
L 217.951875 319.953379 
L 221.671875 319.842208 
L 221.671875 317.807952 
L 225.391875 317.696781 
L 225.391875 315.662525 
L 229.111875 315.551354 
L 229.111875 313.629928 
L 232.831875 313.518757 
L 232.831875 311.632176 
L 236.551875 311.521005 
L 236.551875 309.584645 
L 240.271875 309.473474 
L 240.271875 307.469085 
L 243.991875 307.357914 
L 243.991875 305.423214 
L 247.711875 305.312043 
L 247.711875 303.413846 
L 251.431875 303.302676 
L 251.431875 301.314879 
L 255.151875 301.203708 
L 255.151875 299.3304 
L 258.871875 299.21923 
L 258.871875 297.430544 
L 262.591875 297.319374 
L 262.591875 295.507459 
L 266.311875 295.396288 
L 266.311875 293.597647 
L 270.031875 293.486476 
L 270.031875 291.702769 
L 273.751875 291.591598 
L 273.751875 289.814528 
L 277.471875 289.703357 
L 277.471875 287.931264 
L 281.191875 287.820094 
L 281.191875 286.077868 
L 284.911875 285.966697 
L 284.911875 284.214515 
L 288.631875 284.103345 
L 288.631875 282.38103 
L 292.351875 282.269859 
L 292.351875 280.472877 
L 296.071875 280.361707 
L 296.071875 278.541495 
L 299.791875 278.430325 
L 299.791875 276.644958 
L 303.511875 276.533787 
L 303.511875 274.801517 
L 307.231875 274.690346 
L 307.231875 272.97135 
L 310.951875 272.860179 
L 310.951875 271.127909 
L 314.671875 271.016738 
L 314.671875 269.34752 
L 318.391875 269.236349 
L 318.391875 267.497442 
L 322.111875 267.386271 
L 322.111875 265.67723 
L 325.831875 265.56606 
L 325.831875 263.850382 
L 329.551875 263.739211 
L 329.551875 261.953844 
L 333.271875 261.842674 
L 333.271875 260.146907 
L 336.991875 260.035736 
L 336.991875 258.376473 
L 340.711875 258.265303 
L 340.711875 256.607699 
L 344.431875 256.496529 
L 344.431875 254.822332 
L 348.151875 254.711162 
L 348.151875 253.126566 
L 351.871875 253.015395 
L 351.871875 251.410888 
L 355.591875 251.299717 
L 355.591875 249.590676 
L 359.311875 249.479506 
L 359.311875 247.874999 
L 363.031875 247.763828 
L 363.031875 246.043172 
L 366.751875 245.932002 
L 366.751875 244.239554 
L 370.471875 244.128383 
L 370.471875 242.538809 
L 374.191875 242.427638 
L 374.191875 240.697027 
L 377.911875 240.585857 
L 377.911875 238.938209 
L 381.631875 238.827038 
L 381.631875 237.144545 
L 385.351875 237.033375 
L 385.351875 235.442142 
L 389.071875 235.330971 
L 389.071875 233.611975 
L 392.791875 233.500804 
L 392.791875 231.939438 
L 396.511875 231.828267 
L 396.511875 230.203849 
L 400.231875 230.092678 
L 400.231875 228.461623 
L 403.951875 228.350452 
L 403.951875 226.780789 
L 407.671875 226.669619 
L 407.671875 225.012015 
L 411.391875 224.900844 
L 411.391875 223.3345 
L 415.111875 223.22333 
L 415.111875 221.652008 
L 418.831875 221.540837 
L 418.831875 219.931352 
L 422.551875 219.820181 
L 422.551875 218.149304 
L 426.271875 218.038133 
L 426.271875 216.451878 
L 429.991875 216.340707 
L 429.991875 214.779341 
L 433.711875 214.66817 
L 433.711875 213.153263 
L 437.431875 213.042092 
L 437.431875 211.510593 
L 441.151875 211.399422 
L 441.151875 209.801552 
L 444.871875 209.690381 
L 444.871875 208.183771 
L 448.591875 208.0726 
L 448.591875 206.610789 
L 452.311875 206.499619 
L 452.311875 205.002964 
L 456.031875 204.891793 
L 456.031875 203.315493 
L 459.751875 203.204323 
L 459.751875 201.616408 
L 463.471875 201.505238 
L 463.471875 199.935575 
L 467.191875 199.824404 
L 467.191875 198.292905 
L 470.911875 198.181734 
L 470.911875 196.70499 
L 474.631875 196.593819 
L 474.631875 195.054023 
L 478.351875 194.942853 
L 478.351875 193.315116 
L 482.071875 193.203945 
L 482.071875 191.650875 
L 485.791875 191.539705 
L 485.791875 190.011523 
L 489.511875 189.900353 
L 489.511875 188.405357 
L 493.231875 188.294186 
L 493.231875 186.789235 
L 496.951875 186.678064 
L 496.951875 185.115039 
L 500.671875 185.003868 
L 500.671875 183.439183 
L 504.391875 183.328012 
L 504.391875 181.896069 
L 508.111875 181.784898 
L 508.111875 180.321428 
L 511.831875 180.210257 
L 511.831875 178.698669 
L 515.551875 178.587498 
L 515.551875 177.105777 
L 519.271875 176.994606 
L 519.271875 175.456469 
L 522.991875 175.345299 
L 522.991875 173.837029 
L 526.711875 173.725858 
L 526.711875 172.283959 
L 530.431875 172.172788 
L 530.431875 170.654562 
L 534.151875 170.543392 
L 534.151875 168.991981 
L 537.871875 168.88081 
L 537.871875 167.364244 
L 541.591875 167.253073 
L 541.591875 165.691707 
L 545.311875 165.580536 
L 545.311875 164.06397 
L 549.031875 163.9528 
L 549.031875 162.439552 
L 552.751875 162.328381 
L 552.751875 160.830067 
L 556.471875 160.718896 
L 556.471875 159.253767 
L 560.191875 159.142596 
L 560.191875 157.679127 
L 563.911875 157.567956 
L 563.911875 155.978382 
L 567.631875 155.867211 
L 567.631875 154.400423 
L 571.351875 154.289252 
L 571.351875 152.822464 
L 575.071875 152.711293 
L 575.071875 151.169838 
L 578.791875 151.058668 
L 578.791875 149.557035 
L 582.511875 149.445864 
L 582.511875 147.887816 
L 586.231875 147.776646 
L 586.231875 146.228553 
L 589.951875 146.117383 
L 589.951875 144.647276 
L 593.671875 144.536105 
L 593.671875 143.143983 
L 597.391875 143.032813 
L 597.391875 141.524543 
L 601.111875 141.413372 
L 601.111875 140.017932 
L 604.831875 139.906762 
L 604.831875 138.531233 
L 608.551875 138.420062 
L 608.551875 136.994755 
L 612.271875 136.883585 
L 612.271875 135.522989 
L 615.991875 135.411818 
L 615.991875 133.896911 
L 619.711875 133.785741 
L 619.711875 132.299041 
L 623.431875 132.187871 
L 623.431875 130.732697 
L 627.151875 130.621526 
L 627.151875 129.250975 
L 630.871875 129.139805 
L 630.871875 127.684631 
L 634.591875 127.57346 
L 634.591875 126.114968 
L 638.311875 126.003798 
L 638.311875 124.576832 
L 642.031875 124.465661 
L 642.031875 123.018784 
L 645.751875 122.907613 
L 645.751875 121.417595 
L 649.471875 121.306424 
L 649.471875 119.915962 
L 653.191875 119.804792 
L 653.191875 118.397737 
L 656.911875 118.286566 
L 656.911875 116.874533 
L 660.631875 116.763363 
L 660.631875 115.26173 
L 664.351875 115.150559 
L 664.351875 113.773371 
L 668.071875 113.6622 
L 668.071875 112.226938 
L 671.791875 112.115767 
L 671.791875 110.728623 
L 675.511875 110.617453 
L 675.511875 109.275109 
L 679.231875 109.163939 
L 679.231875 107.725358 
L 682.951875 107.614187 
L 682.951875 106.268525 
L 686.671875 106.157354 
L 686.671875 104.740344 
L 690.391875 104.629173 
L 690.391875 103.203866 
L 694.111875 103.092696 
L 694.111875 101.625907 
L 697.831875 101.514737 
L 697.831875 100.122615 
L 701.551875 100.011444 
L 701.551875 98.561249 
L 705.271875 98.450078 
L 705.271875 97.033067 
L 708.991875 96.921897 
L 708.991875 95.562961 
L 712.711875 95.45179 
L 712.711875 94.126039 
L 716.431875 94.014868 
L 716.431875 92.649295 
L 720.151875 92.538124 
L 720.151875 91.146003 
L 723.871875 91.034832 
L 723.871875 89.803659 
L 727.591875 89.692488 
L 727.591875 88.262204 
L 731.311875 88.151033 
L 731.311875 86.6942 
L 735.031875 86.58303 
L 735.031875 85.156064 
L 738.751875 85.044893 
L 738.751875 83.661068 
L 742.471875 83.549897 
L 742.471875 82.172709 
L 746.191875 82.061538 
L 746.191875 80.634572 
L 749.911875 80.523402 
L 749.911875 79.174421 
L 753.631875 79.06325 
L 753.631875 77.669469 
L 757.351875 77.558299 
L 757.351875 76.164518 
L 761.071875 76.053347 
L 761.071875 74.594855 
L 764.791875 74.483685 
L 764.791875 73.025193 
L 768.511875 72.914022 
L 768.511875 71.518582 
L 772.231875 71.407411 
L 772.231875 70.070045 
L 775.951875 69.958875 
L 775.951875 68.565094 
L 779.671875 68.453923 
L 779.671875 67.040231 
L 783.391875 66.929061 
L 783.391875 65.60331 
L 787.111875 65.492139 
L 787.111875 64.186299 
L 790.831875 64.075128 
L 790.831875 62.654799 
L 794.551875 62.543629 
L 794.551875 61.197967 
L 798.271875 61.086796 
L 798.271875 59.722882 
L 801.991875 59.611711 
L 801.991875 58.232864 
L 805.711875 58.121693 
L 805.711875 56.751142 
L 809.431875 56.639971 
L 809.431875 55.249509 
L 813.151875 55.138338 
L 813.151875 53.82918 
L 816.871875 53.718009 
L 816.871875 52.342481 
L 820.591875 52.23131 
L 820.591875 50.776136 
L 824.311875 50.664966 
L 824.311875 49.291096 
L 828.031875 49.179925 
L 828.031875 47.817671 
L 831.751875 47.7065 
L 831.751875 46.307741 
L 835.471875 46.196571 
L 835.471875 44.850909 
L 839.191875 44.739738 
L 839.191875 43.516861 
L 842.911875 43.405691 
L 842.911875 42.065006 
L 846.631875 41.953835 
L 846.631875 40.566692 
L 850.351875 40.455521 
L 850.351875 39.076674 
L 854.071875 38.965503 
L 854.071875 37.687871 
L 857.791875 37.5767 
L 857.791875 36.18126 
L 861.511875 36.070089 
L 861.511875 34.687923 
L 865.231875 34.576753 
L 865.231875 33.252661 
L 868.951875 33.14149 
L 868.951875 31.747709 
L 872.671875 31.636539 
L 872.671875 30.264328 
L 876.391875 30.153158 
L 876.391875 28.79754 
L 880.111875 28.686369 
L 880.111875 27.345685 
L 883.831875 27.344026 
L 883.831875 27.344026 
" clip-path="url(#pecce4c7874)" style="fill: none; stroke: #de8f05; stroke-width: 3; stroke-linecap: round"/>
   </g>
   <g id="line2d_18">
    <path d="M 136.111875 393.558281 
L 136.111875 382.376504 
L 139.831875 382.264008 
L 139.831875 379.373851 
L 143.551875 379.261355 
L 143.551875 377.557371 
L 147.271875 377.444875 
L 147.271875 376.212381 
L 150.991875 376.099885 
L 150.991875 375.252856 
L 154.711875 375.14036 
L 154.711875 374.529903 
L 158.431875 374.417407 
L 158.431875 374.00051 
L 162.151875 373.888014 
L 162.151875 373.532328 
L 165.871875 373.419832 
L 165.871875 373.138592 
L 169.591875 373.026096 
L 169.591875 372.854043 
L 173.311875 372.741547 
L 173.311875 372.635668 
L 177.031875 372.523172 
L 177.031875 372.456998 
L 180.751875 372.344502 
L 180.751875 372.303143 
L 188.191875 372.188993 
L 188.191875 372.086423 
L 195.631875 371.972272 
L 195.631875 368.719813 
L 199.351875 368.607317 
L 199.351875 366.215121 
L 203.071875 366.102625 
L 203.071875 364.218316 
L 206.791875 364.10582 
L 206.791875 362.529221 
L 210.511875 362.416725 
L 210.511875 361.202429 
L 214.231875 361.089933 
L 214.231875 360.050999 
L 217.951875 359.938503 
L 217.951875 358.995521 
L 221.671875 358.883025 
L 221.671875 358.123676 
L 225.391875 358.01118 
L 225.391875 357.394106 
L 229.111875 357.28161 
L 229.111875 356.796885 
L 232.831875 356.684389 
L 232.831875 356.29727 
L 236.551875 356.184774 
L 236.551875 355.92504 
L 240.271875 355.812544 
L 240.271875 355.585898 
L 243.991875 355.473402 
L 243.991875 355.301349 
L 247.711875 355.188853 
L 247.711875 351.094327 
L 251.431875 350.981831 
L 251.431875 347.985796 
L 255.151875 347.8733 
L 255.151875 345.497648 
L 258.871875 345.385152 
L 258.871875 343.381729 
L 262.591875 343.269233 
L 262.591875 341.687671 
L 266.311875 341.575175 
L 266.311875 340.157394 
L 270.031875 340.044898 
L 270.031875 338.862035 
L 273.751875 338.749539 
L 273.751875 337.828063 
L 277.471875 337.715567 
L 277.471875 336.921478 
L 281.191875 336.808982 
L 281.191875 336.177018 
L 284.911875 336.064522 
L 284.911875 335.521894 
L 288.631875 335.409398 
L 288.631875 334.939562 
L 292.351875 334.827066 
L 292.351875 334.461453 
L 296.071875 334.348957 
L 296.071875 334.029667 
L 299.791875 333.917171 
L 299.791875 329.119545 
L 303.511875 329.007049 
L 303.511875 325.759552 
L 307.231875 325.647056 
L 307.231875 323.130784 
L 310.951875 323.018288 
L 310.951875 320.776638 
L 314.671875 320.664142 
L 314.671875 318.799686 
L 318.391875 318.68719 
L 318.391875 317.037799 
L 322.111875 316.925303 
L 322.111875 315.533991 
L 325.831875 315.421495 
L 325.831875 314.301498 
L 329.551875 314.189001 
L 329.551875 313.178191 
L 333.271875 313.065695 
L 333.271875 312.205431 
L 336.991875 312.092935 
L 336.991875 311.431194 
L 340.711875 311.318698 
L 340.711875 310.719821 
L 344.431875 310.607325 
L 344.431875 310.16065 
L 348.151875 310.048154 
L 348.151875 309.632911 
L 351.871875 309.520415 
L 351.871875 304.391918 
L 355.591875 304.279422 
L 355.591875 300.749031 
L 359.311875 300.636535 
L 359.311875 297.779466 
L 363.031875 297.66697 
L 363.031875 295.163932 
L 366.751875 295.051436 
L 366.751875 292.943789 
L 370.471875 292.831293 
L 370.471875 290.960219 
L 374.191875 290.847723 
L 374.191875 289.337298 
L 377.911875 289.224802 
L 377.911875 287.858306 
L 381.631875 287.74581 
L 381.631875 286.639047 
L 385.351875 286.526551 
L 385.351875 285.661324 
L 389.071875 285.548828 
L 389.071875 284.840764 
L 392.791875 284.728268 
L 392.791875 284.048329 
L 396.511875 283.935833 
L 396.511875 283.340265 
L 400.231875 283.227769 
L 400.231875 282.777785 
L 403.951875 282.665289 
L 403.951875 277.531829 
L 407.671875 277.419333 
L 407.671875 273.860818 
L 411.391875 273.748322 
L 411.391875 270.947501 
L 415.111875 270.835005 
L 415.111875 268.307152 
L 418.831875 268.194656 
L 418.831875 266.020835 
L 422.551875 265.908339 
L 422.551875 264.101785 
L 426.271875 263.989289 
L 426.271875 262.331626 
L 429.991875 262.21913 
L 429.991875 260.90061 
L 433.711875 260.788114 
L 433.711875 259.595325 
L 437.431875 259.482829 
L 437.431875 258.463747 
L 441.151875 258.351251 
L 441.151875 257.476098 
L 444.871875 257.363601 
L 444.871875 256.582746 
L 448.591875 256.47025 
L 448.591875 255.901153 
L 452.311875 255.788657 
L 452.311875 255.262572 
L 456.031875 255.150076 
L 456.031875 250.172125 
L 459.751875 250.059629 
L 459.751875 246.362148 
L 463.471875 246.249652 
L 463.471875 243.207296 
L 467.191875 243.0948 
L 467.191875 240.343609 
L 470.911875 240.231113 
L 470.911875 238.029168 
L 474.631875 237.916672 
L 474.631875 235.858656 
L 478.351875 235.74616 
L 478.351875 234.083534 
L 482.071875 233.971038 
L 482.071875 232.42918 
L 485.791875 232.316684 
L 485.791875 231.092462 
L 489.511875 230.979966 
L 489.511875 229.907945 
L 493.231875 229.795449 
L 493.231875 228.892172 
L 496.951875 228.779676 
L 496.951875 227.959116 
L 500.671875 227.84662 
L 500.671875 227.163372 
L 504.391875 227.050876 
L 504.391875 226.526446 
L 508.111875 226.41395 
L 508.111875 221.811537 
L 511.831875 221.699041 
L 511.831875 218.219935 
L 515.551875 218.107439 
L 515.551875 215.040267 
L 519.271875 214.927771 
L 519.271875 212.413153 
L 522.991875 212.300657 
L 522.991875 210.065625 
L 526.711875 209.953129 
L 526.711875 207.991065 
L 530.431875 207.878569 
L 530.431875 206.192783 
L 534.151875 206.080287 
L 534.151875 204.698901 
L 537.871875 204.586405 
L 537.871875 203.26954 
L 541.591875 203.157044 
L 541.591875 202.051935 
L 545.311875 201.939439 
L 545.311875 200.910431 
L 549.031875 200.797935 
L 549.031875 200.000536 
L 552.751875 199.88804 
L 552.751875 199.178323 
L 556.471875 199.065827 
L 556.471875 198.490111 
L 560.191875 198.377615 
L 560.191875 193.929058 
L 563.911875 193.816562 
L 563.911875 190.557485 
L 567.631875 190.444989 
L 567.631875 187.670637 
L 571.351875 187.558141 
L 571.351875 185.081574 
L 575.071875 184.969077 
L 575.071875 182.798565 
L 578.791875 182.686069 
L 578.791875 180.760401 
L 582.511875 180.647905 
L 582.511875 178.981971 
L 586.231875 178.869475 
L 586.231875 177.445076 
L 589.951875 177.33258 
L 589.951875 176.012406 
L 593.671875 175.89991 
L 593.671875 174.76006 
L 597.391875 174.647564 
L 597.391875 173.570579 
L 601.111875 173.458083 
L 601.111875 172.611054 
L 604.831875 172.498558 
L 604.831875 171.797112 
L 608.551875 171.684616 
L 608.551875 171.004677 
L 612.271875 170.892181 
L 612.271875 166.046578 
L 615.991875 165.934082 
L 615.991875 162.324282 
L 619.711875 162.211786 
L 619.711875 159.075131 
L 623.431875 158.962635 
L 623.431875 156.280928 
L 627.151875 156.168431 
L 627.151875 153.895349 
L 630.871875 153.782853 
L 630.871875 151.804246 
L 634.591875 151.69175 
L 634.591875 149.868652 
L 638.311875 149.756156 
L 638.311875 148.176248 
L 642.031875 148.063752 
L 642.031875 146.69891 
L 645.751875 146.586414 
L 645.751875 145.334068 
L 649.471875 145.221572 
L 649.471875 144.285208 
L 653.191875 144.172712 
L 653.191875 143.281015 
L 656.911875 143.168519 
L 656.911875 142.404208 
L 660.631875 142.291711 
L 660.631875 141.611772 
L 664.351875 141.499276 
L 664.351875 136.820763 
L 668.071875 136.708267 
L 668.071875 133.10343 
L 671.791875 132.990934 
L 671.791875 129.917145 
L 675.511875 129.804649 
L 675.511875 126.980667 
L 679.231875 126.868171 
L 679.231875 124.328737 
L 682.951875 124.216241 
L 682.951875 122.075508 
L 686.671875 121.963011 
L 686.671875 120.098555 
L 690.391875 119.986059 
L 690.391875 118.368101 
L 694.111875 118.255605 
L 694.111875 116.856021 
L 697.831875 116.743525 
L 697.831875 115.598712 
L 701.551875 115.486216 
L 701.551875 114.394343 
L 705.271875 114.281847 
L 705.271875 113.385187 
L 708.991875 113.272691 
L 708.991875 112.419044 
L 712.711875 112.306548 
L 712.711875 111.628263 
L 716.431875 111.515767 
L 716.431875 106.908392 
L 720.151875 106.795895 
L 720.151875 103.205948 
L 723.871875 103.093452 
L 723.871875 100.041169 
L 727.591875 99.928673 
L 727.591875 97.218841 
L 731.311875 97.106345 
L 731.311875 94.760471 
L 735.031875 94.647975 
L 735.031875 92.593268 
L 738.751875 92.480772 
L 738.751875 90.649402 
L 742.471875 90.536906 
L 742.471875 88.917294 
L 746.191875 88.804797 
L 746.191875 87.474697 
L 749.911875 87.362201 
L 749.911875 86.152868 
L 753.631875 86.040372 
L 753.631875 84.931955 
L 757.351875 84.819459 
L 757.351875 83.940997 
L 761.071875 83.828501 
L 761.071875 83.036066 
L 764.791875 82.92357 
L 764.791875 82.21716 
L 768.511875 82.104664 
L 768.511875 77.151529 
L 772.231875 77.039033 
L 772.231875 73.214167 
L 775.951875 73.101671 
L 775.951875 69.905459 
L 779.671875 69.792963 
L 779.671875 66.83167 
L 783.391875 66.719174 
L 783.391875 64.285619 
L 787.111875 64.173123 
L 787.111875 62.0175 
L 790.831875 61.905004 
L 790.831875 60.025658 
L 794.551875 59.913162 
L 794.551875 58.318365 
L 798.271875 58.205869 
L 798.271875 56.809594 
L 801.991875 56.697098 
L 801.991875 55.431517 
L 805.711875 55.319021 
L 805.711875 54.227148 
L 809.431875 54.114652 
L 809.431875 53.23619 
L 813.151875 53.123694 
L 813.151875 52.255158 
L 816.871875 52.142662 
L 816.871875 51.394894 
L 820.591875 51.282398 
L 820.591875 46.991004 
L 824.311875 46.878508 
L 824.311875 43.424217 
L 828.031875 43.311721 
L 828.031875 40.378552 
L 831.751875 40.266056 
L 831.751875 37.673683 
L 835.471875 37.561187 
L 835.471875 35.291414 
L 839.191875 35.178918 
L 839.191875 33.114284 
L 842.911875 33.001788 
L 842.911875 31.201851 
L 846.631875 31.089355 
L 846.631875 29.50283 
L 850.351875 29.390334 
L 850.351875 27.828624 
L 854.071875 27.716128 
L 854.071875 26.485288 
L 857.791875 26.372792 
L 857.791875 25.408304 
L 861.511875 25.295808 
L 861.511875 24.296578 
L 865.231875 24.184082 
L 865.231875 23.320509 
L 868.951875 23.208013 
L 868.951875 22.49995 
L 872.671875 22.387454 
L 872.671875 17.839635 
L 876.391875 17.727139 
L 876.391875 14.016423 
L 880.111875 13.903927 
L 880.111875 10.734185 
L 883.831875 10.732531 
L 883.831875 10.732531 
" clip-path="url(#pecce4c7874)" style="fill: none; stroke: #029e73; stroke-width: 3; stroke-linecap: round"/>
   </g>
   <g id="line2d_19">
    <path d="M 136.111875 393.558281 
L 136.111875 382.376509 
L 139.831875 382.265338 
L 139.831875 366.082547 
L 143.551875 365.971376 
L 143.551875 358.904576 
L 147.271875 358.793405 
L 147.271875 352.549599 
L 150.991875 352.438428 
L 150.991875 346.700697 
L 154.711875 346.589526 
L 154.711875 340.712417 
L 158.431875 340.601247 
L 158.431875 334.724137 
L 162.151875 334.612967 
L 162.151875 328.774021 
L 165.871875 328.66285 
L 165.871875 322.931756 
L 169.591875 322.820585 
L 169.591875 317.109402 
L 173.311875 316.998232 
L 173.311875 311.318575 
L 177.031875 311.207404 
L 177.031875 305.625644 
L 180.751875 305.514473 
L 180.751875 299.945987 
L 184.471875 299.834816 
L 184.471875 294.33436 
L 188.191875 294.223189 
L 188.191875 288.724392 
L 191.911875 288.613221 
L 191.911875 283.202365 
L 195.631875 283.091194 
L 195.631875 277.751686 
L 199.351875 277.640516 
L 199.351875 272.442045 
L 203.071875 272.330874 
L 203.071875 267.049441 
L 206.791875 266.93827 
L 206.791875 261.777962 
L 210.511875 261.666792 
L 210.511875 256.581151 
L 214.231875 256.46998 
L 214.231875 251.354473 
L 217.951875 251.243302 
L 217.951875 246.189187 
L 221.671875 246.078017 
L 221.671875 241.249562 
L 225.391875 241.138391 
L 225.391875 236.225314 
L 229.111875 236.114143 
L 229.111875 231.277392 
L 232.831875 231.166221 
L 232.831875 226.387544 
L 236.551875 226.276373 
L 236.551875 221.711741 
L 240.271875 221.600571 
L 240.271875 216.840145 
L 243.991875 216.728975 
L 243.991875 212.235691 
L 247.711875 212.12452 
L 247.711875 207.69097 
L 251.431875 207.579799 
L 251.431875 203.157863 
L 255.151875 203.046693 
L 255.151875 198.500312 
L 258.871875 198.389142 
L 258.871875 193.968865 
L 262.591875 193.857695 
L 262.591875 189.661419 
L 266.311875 189.550248 
L 266.311875 185.285943 
L 270.031875 185.174772 
L 270.031875 180.850733 
L 273.751875 180.739562 
L 273.751875 176.543286 
L 277.471875 176.432116 
L 277.471875 172.141262 
L 281.191875 172.030091 
L 281.191875 167.895208 
L 284.911875 167.784038 
L 284.911875 163.657451 
L 288.631875 163.54628 
L 288.631875 159.486064 
L 292.351875 159.374893 
L 292.351875 155.505492 
L 296.071875 155.394321 
L 296.071875 151.468505 
L 299.791875 151.357335 
L 299.791875 147.468023 
L 303.511875 147.356852 
L 303.511875 143.454266 
L 307.231875 143.343095 
L 307.231875 139.523472 
L 310.951875 139.412301 
L 310.951875 135.652411 
L 314.671875 135.541241 
L 314.671875 131.832788 
L 318.391875 131.721618 
L 318.391875 127.923565 
L 322.111875 127.812394 
L 322.111875 123.967882 
L 325.831875 123.856712 
L 325.831875 120.254452 
L 329.551875 120.143281 
L 329.551875 116.516132 
L 333.271875 116.404962 
L 333.271875 112.764539 
L 336.991875 112.653368 
L 336.991875 109.029538 
L 340.711875 108.918368 
L 340.711875 105.309471 
L 344.431875 105.1983 
L 344.431875 101.655774 
L 348.151875 101.544603 
L 348.151875 97.967232 
L 351.871875 97.856062 
L 351.871875 94.446277 
L 355.591875 94.335106 
L 355.591875 90.759394 
L 359.311875 90.648224 
L 359.311875 87.203594 
L 363.031875 87.092423 
L 363.031875 83.551556 
L 366.751875 83.440386 
L 366.751875 80.043875 
L 370.471875 79.932704 
L 370.471875 76.579334 
L 374.191875 76.468163 
L 374.191875 73.284038 
L 377.911875 73.172867 
L 377.911875 69.829452 
L 381.631875 69.718282 
L 381.631875 66.408052 
L 385.351875 66.296881 
L 385.351875 62.980015 
L 389.071875 62.868844 
L 389.071875 59.65983 
L 392.791875 59.548659 
L 392.791875 56.313097 
L 396.511875 56.201926 
L 396.511875 52.987934 
L 400.231875 52.876763 
L 400.231875 49.775601 
L 403.951875 49.66443 
L 403.951875 46.619683 
L 407.671875 46.508512 
L 407.671875 43.468743 
L 411.391875 43.357572 
L 411.391875 40.218246 
L 415.111875 40.107076 
L 415.111875 36.997617 
L 418.831875 36.886447 
L 418.831875 33.881521 
L 422.551875 33.770351 
L 422.551875 30.707352 
L 426.271875 30.596181 
L 426.271875 27.564708 
L 429.991875 27.453537 
L 429.991875 24.607901 
L 433.711875 24.49673 
L 433.711875 21.534946 
L 437.431875 21.423776 
L 437.431875 18.491858 
L 441.151875 18.380687 
L 441.151875 15.374103 
L 444.871875 15.262932 
L 444.871875 12.272941 
L 448.591875 12.16177 
L 448.591875 9.264697 
L 452.311875 9.153526 
L 452.311875 6.233224 
L 456.031875 6.122053 
L 456.031875 3.309603 
L 459.751875 3.198432 
L 459.751875 0.331226 
L 463.471875 0.220055 
L 463.471875 -1 
L 463.471875 -1 
" clip-path="url(#pecce4c7874)" style="fill: none; stroke: #d55e00; stroke-width: 3; stroke-linecap: round"/>
   </g>
   <g id="line2d_20">
    <path d="M 247.711875 431.358281 
L 247.711875 15.558281 
" clip-path="url(#pecce4c7874)" style="fill: none; stroke: #000000; stroke-width: 0.7; stroke-linecap: round"/>
   </g>
   <g id="patch_3">
    <path d="M 98.911875 431.358281 
L 98.911875 15.558281 
" style="fill: none; stroke: #262626; stroke-width: 2.5; stroke-linejoin: miter; stroke-linecap: square"/>
   </g>
   <g id="patch_4">
    <path d="M 98.911875 431.358281 
L 880.111875 431.358281 
" style="fill: none; stroke: #262626; stroke-width: 2.5; stroke-linejoin: miter; stroke-linecap: square"/>
   </g>
   <g id="legend_1">
    <g id="patch_5">
     <path d="M 622.876875 420.358281 
L 864.711875 420.358281 
Q 869.111875 420.358281 869.111875 415.958281 
L 869.111875 288.990781 
Q 869.111875 284.590781 864.711875 284.590781 
L 622.876875 284.590781 
Q 618.476875 284.590781 618.476875 288.990781 
L 618.476875 415.958281 
Q 618.476875 420.358281 622.876875 420.358281 
z
" style="fill: #ffffff; opacity: 0.8; stroke: #cccccc; stroke-width: 2; stroke-linejoin: miter"/>
    </g>
    <g id="line2d_21">
     <path d="M 627.276875 302.407344 
L 649.276875 302.407344 
L 671.276875 302.407344 
" style="fill: none; stroke: #0173b2; stroke-width: 3; stroke-linecap: round"/>
    </g>
    <g id="text_18">
     <!-- temporal -->
     <g style="fill: #262626" transform="translate(688.876875 310.107344) scale(0.22 -0.22)">
      <defs>
       <path id="DejaVuSans-70" d="M 1159 525 
L 1159 -1331 
L 581 -1331 
L 581 3500 
L 1159 3500 
L 1159 2969 
Q 1341 3281 1617 3432 
Q 1894 3584 2278 3584 
Q 2916 3584 3314 3078 
Q 3713 2572 3713 1747 
Q 3713 922 3314 415 
Q 2916 -91 2278 -91 
Q 1894 -91 1617 61 
Q 1341 213 1159 525 
z
M 3116 1747 
Q 3116 2381 2855 2742 
Q 2594 3103 2138 3103 
Q 1681 3103 1420 2742 
Q 1159 2381 1159 1747 
Q 1159 1113 1420 752 
Q 1681 391 2138 391 
Q 2594 391 2855 752 
Q 3116 1113 3116 1747 
z
" transform="scale(0.015625)"/>
       <path id="DejaVuSans-6f" d="M 1959 3097 
Q 1497 3097 1228 2736 
Q 959 2375 959 1747 
Q 959 1119 1226 758 
Q 1494 397 1959 397 
Q 2419 397 2687 759 
Q 2956 1122 2956 1747 
Q 2956 2369 2687 2733 
Q 2419 3097 1959 3097 
z
M 1959 3584 
Q 2709 3584 3137 3096 
Q 3566 2609 3566 1747 
Q 3566 888 3137 398 
Q 2709 -91 1959 -91 
Q 1206 -91 779 398 
Q 353 888 353 1747 
Q 353 2609 779 3096 
Q 1206 3584 1959 3584 
z
" transform="scale(0.015625)"/>
       <path id="DejaVuSans-72" d="M 2631 2963 
Q 2534 3019 2420 3045 
Q 2306 3072 2169 3072 
Q 1681 3072 1420 2755 
Q 1159 2438 1159 1844 
L 1159 0 
L 581 0 
L 581 3500 
L 1159 3500 
L 1159 2956 
Q 1341 3275 1631 3429 
Q 1922 3584 2338 3584 
Q 2397 3584 2469 3576 
Q 2541 3569 2628 3553 
L 2631 2963 
z
" transform="scale(0.015625)"/>
       <path id="DejaVuSans-61" d="M 2194 1759 
Q 1497 1759 1228 1600 
Q 959 1441 959 1056 
Q 959 750 1161 570 
Q 1363 391 1709 391 
Q 2188 391 2477 730 
Q 2766 1069 2766 1631 
L 2766 1759 
L 2194 1759 
z
M 3341 1997 
L 3341 0 
L 2766 0 
L 2766 531 
Q 2569 213 2275 61 
Q 1981 -91 1556 -91 
Q 1019 -91 701 211 
Q 384 513 384 1019 
Q 384 1609 779 1909 
Q 1175 2209 1959 2209 
L 2766 2209 
L 2766 2266 
Q 2766 2663 2505 2880 
Q 2244 3097 1772 3097 
Q 1472 3097 1187 3025 
Q 903 2953 641 2809 
L 641 3341 
Q 956 3463 1253 3523 
Q 1550 3584 1831 3584 
Q 2591 3584 2966 3190 
Q 3341 2797 3341 1997 
z
" transform="scale(0.015625)"/>
       <path id="DejaVuSans-6c" d="M 603 4863 
L 1178 4863 
L 1178 0 
L 603 0 
L 603 4863 
z
" transform="scale(0.015625)"/>
      </defs>
      <use xlink:href="#DejaVuSans-74"/>
      <use xlink:href="#DejaVuSans-65" x="39.208984"/>
      <use xlink:href="#DejaVuSans-6d" x="100.732422"/>
      <use xlink:href="#DejaVuSans-70" x="198.144531"/>
      <use xlink:href="#DejaVuSans-6f" x="261.621094"/>
      <use xlink:href="#DejaVuSans-72" x="322.802734"/>
      <use xlink:href="#DejaVuSans-61" x="363.916016"/>
      <use xlink:href="#DejaVuSans-6c" x="425.195312"/>
     </g>
    </g>
    <g id="line2d_22">
     <path d="M 627.276875 334.699219 
L 649.276875 334.699219 
L 671.276875 334.699219 
" style="fill: none; stroke: #de8f05; stroke-width: 3; stroke-linecap: round"/>
    </g>
    <g id="text_19">
     <!-- improved static -->
     <g style="fill: #262626" transform="translate(688.876875 342.399219) scale(0.22 -0.22)">
      <defs>
       <path id="DejaVuSans-76" d="M 191 3500 
L 800 3500 
L 1894 563 
L 2988 3500 
L 3597 3500 
L 2284 0 
L 1503 0 
L 191 3500 
z
" transform="scale(0.015625)"/>
       <path id="DejaVuSans-64" d="M 2906 2969 
L 2906 4863 
L 3481 4863 
L 3481 0 
L 2906 0 
L 2906 525 
Q 2725 213 2448 61 
Q 2172 -91 1784 -91 
Q 1150 -91 751 415 
Q 353 922 353 1747 
Q 353 2572 751 3078 
Q 1150 3584 1784 3584 
Q 2172 3584 2448 3432 
Q 2725 3281 2906 2969 
z
M 947 1747 
Q 947 1113 1208 752 
Q 1469 391 1925 391 
Q 2381 391 2643 752 
Q 2906 1113 2906 1747 
Q 2906 2381 2643 2742 
Q 2381 3103 1925 3103 
Q 1469 3103 1208 2742 
Q 947 2381 947 1747 
z
" transform="scale(0.015625)"/>
       <path id="DejaVuSans-73" d="M 2834 3397 
L 2834 2853 
Q 2591 2978 2328 3040 
Q 2066 3103 1784 3103 
Q 1356 3103 1142 2972 
Q 928 2841 928 2578 
Q 928 2378 1081 2264 
Q 1234 2150 1697 2047 
L 1894 2003 
Q 2506 1872 2764 1633 
Q 3022 1394 3022 966 
Q 3022 478 2636 193 
Q 2250 -91 1575 -91 
Q 1294 -91 989 -36 
Q 684 19 347 128 
L 347 722 
Q 666 556 975 473 
Q 1284 391 1588 391 
Q 1994 391 2212 530 
Q 2431 669 2431 922 
Q 2431 1156 2273 1281 
Q 2116 1406 1581 1522 
L 1381 1569 
Q 847 1681 609 1914 
Q 372 2147 372 2553 
Q 372 3047 722 3315 
Q 1072 3584 1716 3584 
Q 2034 3584 2315 3537 
Q 2597 3491 2834 3397 
z
" transform="scale(0.015625)"/>
       <path id="DejaVuSans-63" d="M 3122 3366 
L 3122 2828 
Q 2878 2963 2633 3030 
Q 2388 3097 2138 3097 
Q 1578 3097 1268 2742 
Q 959 2388 959 1747 
Q 959 1106 1268 751 
Q 1578 397 2138 397 
Q 2388 397 2633 464 
Q 2878 531 3122 666 
L 3122 134 
Q 2881 22 2623 -34 
Q 2366 -91 2075 -91 
Q 1284 -91 818 406 
Q 353 903 353 1747 
Q 353 2603 823 3093 
Q 1294 3584 2113 3584 
Q 2378 3584 2631 3529 
Q 2884 3475 3122 3366 
z
" transform="scale(0.015625)"/>
      </defs>
      <use xlink:href="#DejaVuSans-69"/>
      <use xlink:href="#DejaVuSans-6d" x="27.783203"/>
      <use xlink:href="#DejaVuSans-70" x="125.195312"/>
      <use xlink:href="#DejaVuSans-72" x="188.671875"/>
      <use xlink:href="#DejaVuSans-6f" x="227.535156"/>
      <use xlink:href="#DejaVuSans-76" x="288.716797"/>
      <use xlink:href="#DejaVuSans-65" x="347.896484"/>
      <use xlink:href="#DejaVuSans-64" x="409.419922"/>
      <use xlink:href="#DejaVuSans-20" x="472.896484"/>
      <use xlink:href="#DejaVuSans-73" x="504.683594"/>
      <use xlink:href="#DejaVuSans-74" x="556.783203"/>
      <use xlink:href="#DejaVuSans-61" x="595.992188"/>
      <use xlink:href="#DejaVuSans-74" x="657.271484"/>
      <use xlink:href="#DejaVuSans-69" x="696.480469"/>
      <use xlink:href="#DejaVuSans-63" x="724.263672"/>
     </g>
    </g>
    <g id="line2d_23">
     <path d="M 627.276875 366.991094 
L 649.276875 366.991094 
L 671.276875 366.991094 
" style="fill: none; stroke: #029e73; stroke-width: 3; stroke-linecap: round"/>
    </g>
    <g id="text_20">
     <!-- series -->
     <g style="fill: #262626" transform="translate(688.876875 374.691094) scale(0.22 -0.22)">
      <use xlink:href="#DejaVuSans-73"/>
      <use xlink:href="#DejaVuSans-65" x="52.099609"/>
      <use xlink:href="#DejaVuSans-72" x="113.623047"/>
      <use xlink:href="#DejaVuSans-69" x="154.736328"/>
      <use xlink:href="#DejaVuSans-65" x="182.519531"/>
      <use xlink:href="#DejaVuSans-73" x="244.042969"/>
     </g>
    </g>
    <g id="line2d_24">
     <path d="M 627.276875 399.282969 
L 649.276875 399.282969 
L 671.276875 399.282969 
" style="fill: none; stroke: #d55e00; stroke-width: 3; stroke-linecap: round"/>
    </g>
    <g id="text_21">
     <!-- naive static -->
     <g style="fill: #262626" transform="translate(688.876875 406.982969) scale(0.22 -0.22)">
      <use xlink:href="#DejaVuSans-6e"/>
      <use xlink:href="#DejaVuSans-61" x="63.378906"/>
      <use xlink:href="#DejaVuSans-69" x="124.658203"/>
      <use xlink:href="#DejaVuSans-76" x="152.441406"/>
      <use xlink:href="#DejaVuSans-65" x="211.621094"/>
      <use xlink:href="#DejaVuSans-20" x="273.144531"/>
      <use xlink:href="#DejaVuSans-73" x="304.931641"/>
      <use xlink:href="#DejaVuSans-74" x="357.03125"/>
      <use xlink:href="#DejaVuSans-61" x="396.240234"/>
      <use xlink:href="#DejaVuSans-74" x="457.519531"/>
      <use xlink:href="#DejaVuSans-69" x="496.728516"/>
      <use xlink:href="#DejaVuSans-63" x="524.511719"/>
     </g>
    </g>
   </g>
  </g>
 </g>
 <defs>
  <clipPath id="pecce4c7874">
   <rect x="98.911875" y="15.558281" width="781.2" height="415.8"/>
  </clipPath>
 </defs>
</svg>
